<svg width="18" height="24" viewBox="0 0 18 24" fill="none" xmlns="http://www.w3.org/2000/svg">
    <path fill-rule="evenodd" clip-rule="evenodd"
        d="M0 3C0 1.34315 1.34315 0 3 0H15C16.6569 0 18 1.34315 18 3V23.25C18 23.5266 17.8478 23.7807 17.6039 23.9113C17.36 24.0418 17.0641 24.0275 16.834 23.874L9 19.6514L1.16603 23.874C0.935883 24.0275 0.639975 24.0418 0.396107 23.9113C0.152238 23.7807 0 23.5266 0 23.25V3ZM3 1.5C2.17157 1.5 1.5 2.17157 1.5 3V21.8486L8.58397 18.126C8.8359 17.958 9.1641 17.958 9.41603 18.126L16.5 21.8486V3C16.5 2.17157 15.8284 1.5 15 1.5H3Z"
        fill="black" />
</svg>