<svg width="16" height="16" viewBox="0 0 16 16" fill="none" xmlns="http://www.w3.org/2000/svg">
    <path fill-rule="evenodd" clip-rule="evenodd"
        d="M8 15C11.866 15 15 11.866 15 8C15 4.13401 11.866 1 8 1C4.13401 1 1 4.13401 1 8C1 11.866 4.13401 15 8 15ZM8 16C12.4183 16 16 12.4183 16 8C16 3.58172 12.4183 0 8 0C3.58172 0 0 3.58172 0 8C0 12.4183 3.58172 16 8 16Z"
        fill="#34A853" />
    <path fill-rule="evenodd" clip-rule="evenodd"
        d="M10.9697 4.96967C11.2626 4.67678 11.7374 4.67678 12.0303 4.96967C12.3196 5.25897 12.3232 5.72582 12.041 6.01947L8.04876 11.0097C8.043 11.0169 8.03685 11.0238 8.03032 11.0303C7.73743 11.3232 7.26256 11.3232 6.96966 11.0303L4.32322 8.38388C4.03032 8.09099 4.03032 7.61612 4.32322 7.32322C4.61611 7.03033 5.09098 7.03033 5.38388 7.32322L7.4774 9.41674L10.9498 4.9921C10.9559 4.98424 10.9626 4.97674 10.9697 4.96967Z"
        fill="#34A853" />
</svg>