<svg width="24" height="24" viewBox="0 0 24 24" fill="none" xmlns="http://www.w3.org/2000/svg">
<path d="M20.9299 11.2409L18.8999 9.21086V6.25086C18.8999 5.61086 18.3899 5.10086 17.7499 5.10086H14.7899L12.7599 3.07086C12.3399 2.65086 11.6599 2.65086 11.2399 3.07086L9.20988 5.10086H6.24988C5.60988 5.10086 5.09988 5.61086 5.09988 6.25086V9.21086L3.06988 11.2409C2.64988 11.6609 2.64988 12.3409 3.06988 12.7609L5.09988 14.7909V17.7509C5.09988 18.3909 5.60988 18.9009 6.24988 18.9009H9.20988L11.2399 20.9309C11.6599 21.3509 12.3399 21.3509 12.7599 20.9309L14.7899 18.9009H17.7499C18.3899 18.9009 18.8999 18.3809 18.8999 17.7509V14.7909L20.9299 12.7609C21.3599 12.3409 21.3599 11.6609 20.9299 11.2409Z" stroke="#242424" stroke-width="1.5" stroke-linecap="round" stroke-linejoin="round"/>
<path d="M14.4396 9.56055L9.55957 14.4405" stroke="#242424" stroke-width="1.5" stroke-linecap="round" stroke-linejoin="round"/>
<path d="M8.96996 7.65039C8.26996 7.65039 7.70996 8.22039 7.70996 8.91039C7.70996 9.61039 8.27996 10.1704 8.96996 10.1704C9.66996 10.1704 10.2299 9.60039 10.2299 8.91039C10.2299 8.21039 9.65996 7.65039 8.96996 7.65039Z" fill="#242424"/>
<path d="M15.1203 13.8008C14.4203 13.8008 13.8604 14.3708 13.8604 15.0608C13.8604 15.7608 14.4303 16.3208 15.1203 16.3208C15.8203 16.3208 16.3804 15.7508 16.3804 15.0608C16.3904 14.3708 15.8203 13.8008 15.1203 13.8008Z" fill="#242424"/>
</svg>
