<svg width="260" height="193" viewBox="0 0 260 193" fill="none" xmlns="http://www.w3.org/2000/svg">
<g clip-path="url(#clip0_508_12888)">
<path d="M259.624 191.528H0.375723C0.276075 191.528 0.180508 191.487 0.110046 191.415C0.0395847 191.343 0 191.245 0 191.143C0 191.042 0.0395847 190.944 0.110046 190.872C0.180508 190.8 0.276075 190.759 0.375723 190.759H259.624C259.724 190.759 259.819 190.8 259.89 190.872C259.96 190.944 260 191.042 260 191.143C260 191.245 259.96 191.343 259.89 191.415C259.819 191.487 259.724 191.528 259.624 191.528Z" fill="#CCCCCC"/>
<path d="M233.964 124.541H81.4207C80.773 124.541 80.1518 124.804 79.6938 125.272C79.2358 125.74 78.9785 126.375 78.9785 127.037C78.9785 127.7 79.2358 128.335 79.6938 128.803C80.1518 129.271 80.773 129.534 81.4207 129.534H85.7415V189.261C85.7415 189.923 85.9988 190.558 86.4568 191.026C86.9148 191.494 87.536 191.757 88.1837 191.757C88.8314 191.757 89.4526 191.494 89.9106 191.026C90.3686 190.558 90.6259 189.923 90.6259 189.261L90.663 129.534H224.383V189.261C224.383 189.923 224.64 190.558 225.098 191.026C225.556 191.494 226.178 191.757 226.825 191.757C227.473 191.757 228.094 191.494 228.552 191.026C229.01 190.558 229.268 189.923 229.268 189.261V130.85L229.978 129.534H233.964C234.612 129.534 235.233 129.271 235.691 128.803C236.149 128.335 236.406 127.7 236.406 127.037C236.406 126.375 236.149 125.74 235.691 125.272C235.233 124.804 234.612 124.541 233.964 124.541Z" fill="#CCCCCC"/>
<path d="M165.992 125.847H119.785C118.89 125.846 118.032 125.483 117.4 124.836C116.767 124.189 116.411 123.312 116.41 122.397V96.3908C116.411 95.4761 116.767 94.5992 117.4 93.9525C118.032 93.3057 118.89 92.9419 119.785 92.9409H165.992C166.887 92.9419 167.744 93.3057 168.377 93.9525C169.01 94.5992 169.366 95.4761 169.367 96.3908V122.397C169.366 123.312 169.01 124.189 168.377 124.836C167.744 125.483 166.887 125.846 165.992 125.847Z" fill="#3F3D56"/>
<path d="M165.992 95.596H119.785C119.579 95.5965 119.381 95.6804 119.236 95.8294C119.09 95.9784 119.008 96.1804 119.008 96.3911V122.398C119.008 122.609 119.09 122.811 119.236 122.96C119.382 123.109 119.579 123.193 119.785 123.193H165.992C166.198 123.193 166.395 123.109 166.541 122.96C166.687 122.811 166.769 122.609 166.769 122.398V96.3911C166.769 96.1804 166.687 95.9784 166.541 95.8294C166.395 95.6804 166.198 95.5965 165.992 95.596Z" fill="white"/>
<path d="M146.829 114.009C146.829 114.009 141.298 112.706 138.256 115.095C135.213 117.484 142.128 122.913 142.128 122.913L146.829 114.009Z" fill="#2F2E41"/>
<path d="M143.159 111.547C146.041 111.547 148.377 109.159 148.377 106.213C148.377 103.267 146.041 100.879 143.159 100.879C140.278 100.879 137.942 103.267 137.942 106.213C137.942 109.159 140.278 111.547 143.159 111.547Z" fill="#A0616A"/>
<path d="M139.125 98.7253C139.473 98.1216 139.977 97.6279 140.582 97.2987C141.187 96.9696 141.87 96.8178 142.554 96.8602C143.269 96.9519 143.968 97.1518 144.626 97.4532L148.037 98.8134C148.92 99.1653 149.886 99.5965 150.269 100.482C150.625 101.304 150.359 102.254 150.091 103.11L148.815 107.179C148.673 106.258 148.431 105.356 148.092 104.491C147.747 103.62 147.124 102.894 146.324 102.431C145.438 101.966 144.394 101.976 143.399 102.025C141.991 102.094 140.459 102.277 139.458 103.293C138.927 103.87 138.567 104.589 138.419 105.367C138.275 106.14 138.202 106.926 138.202 107.714C137.624 106.699 137.137 105.633 136.748 104.528C136.427 103.705 136.245 102.833 136.208 101.949C136.174 101.057 136.464 100.183 137.021 99.4956C137.304 99.1597 137.673 98.9111 138.086 98.7781C138.5 98.645 138.942 98.6326 139.362 98.7425L139.125 98.7253Z" fill="#2F2E41"/>
<path d="M155.618 118.634C155.569 118.454 155.469 118.293 155.331 118.17C155.192 118.048 155.022 117.97 154.84 117.946C154.828 117.938 154.816 117.93 154.803 117.923L147.013 113.461C146.791 113.334 146.529 113.299 146.282 113.364C146.035 113.429 145.822 113.588 145.688 113.81L143.557 117.336L140.349 114.056L140.298 114.003C140.133 113.835 139.916 113.731 139.684 113.711C139.452 113.69 139.22 113.753 139.029 113.89L132.627 118.473C132.616 118.473 132.605 118.477 132.594 118.477C132.287 118.529 132.008 118.686 131.8 118.923C131.593 119.16 131.472 119.462 131.455 119.779L131.29 123.193H156.854L155.618 118.634Z" fill="#3199D8"/>
<path d="M169.886 122.663H164.954C164.954 122.522 164.899 122.387 164.802 122.288C164.704 122.188 164.572 122.132 164.434 122.132H162.877C162.739 122.132 162.607 122.188 162.51 122.288C162.412 122.387 162.358 122.522 162.358 122.663H160.8C160.8 122.522 160.745 122.387 160.648 122.288C160.551 122.188 160.419 122.132 160.281 122.132H158.723C158.586 122.132 158.454 122.188 158.356 122.288C158.259 122.387 158.204 122.522 158.204 122.663H156.647C156.647 122.522 156.592 122.387 156.495 122.288C156.397 122.188 156.265 122.132 156.128 122.132H154.57C154.432 122.132 154.3 122.188 154.203 122.288C154.106 122.387 154.051 122.522 154.051 122.663H152.493C152.493 122.522 152.439 122.387 152.341 122.288C152.244 122.188 152.112 122.132 151.974 122.132H150.417C150.279 122.132 150.147 122.188 150.049 122.288C149.952 122.387 149.897 122.522 149.897 122.663H148.34C148.34 122.522 148.285 122.387 148.188 122.288C148.09 122.188 147.958 122.132 147.821 122.132H146.263C146.125 122.132 145.993 122.188 145.896 122.288C145.799 122.387 145.744 122.522 145.744 122.663H144.186C144.186 122.522 144.132 122.387 144.034 122.288C143.937 122.188 143.805 122.132 143.667 122.132H142.11C141.972 122.132 141.84 122.188 141.743 122.288C141.645 122.387 141.59 122.522 141.59 122.663H140.033C140.033 122.522 139.978 122.387 139.881 122.288C139.784 122.188 139.651 122.132 139.514 122.132H137.956C137.819 122.132 137.686 122.188 137.589 122.288C137.492 122.387 137.437 122.522 137.437 122.663H135.88C135.88 122.522 135.825 122.387 135.727 122.288C135.63 122.188 135.498 122.132 135.36 122.132H133.803C133.665 122.132 133.533 122.188 133.436 122.288C133.338 122.387 133.284 122.522 133.284 122.663H131.726C131.726 122.522 131.671 122.387 131.574 122.288C131.477 122.188 131.345 122.132 131.207 122.132H129.649C129.512 122.132 129.38 122.188 129.282 122.288C129.185 122.387 129.13 122.522 129.13 122.663H127.573C127.573 122.522 127.518 122.387 127.421 122.288C127.323 122.188 127.191 122.132 127.053 122.132H125.496C125.358 122.132 125.226 122.188 125.129 122.288C125.031 122.387 124.977 122.522 124.977 122.663H123.419C123.419 122.522 123.365 122.387 123.267 122.288C123.17 122.188 123.038 122.132 122.9 122.132H121.342C121.205 122.132 121.073 122.188 120.975 122.288C120.878 122.387 120.823 122.522 120.823 122.663H115.891C115.478 122.663 115.083 122.832 114.791 123.13C114.5 123.429 114.336 123.833 114.336 124.255C114.336 124.677 114.5 125.082 114.791 125.38C115.083 125.679 115.478 125.847 115.891 125.847H169.886C170.299 125.847 170.695 125.68 170.987 125.381C171.279 125.082 171.443 124.677 171.443 124.255C171.443 123.833 171.279 123.428 170.987 123.129C170.695 122.831 170.299 122.663 169.886 122.663Z" fill="#3F3D56"/>
<path d="M107.862 113.416V123.989H81.9514C81.2572 124.013 80.5652 123.895 79.9168 123.64C79.2683 123.386 78.6766 123 78.177 122.507C77.6773 122.014 77.28 121.423 77.0086 120.769C76.7372 120.115 76.5973 119.413 76.5973 118.702C76.5973 117.992 76.7372 117.289 77.0086 116.636C77.28 115.982 77.6773 115.391 78.177 114.898C78.6766 114.404 79.2683 114.019 79.9168 113.764C80.5652 113.51 81.2572 113.391 81.9514 113.416H107.862Z" fill="#F2F2F2"/>
<path d="M108.499 123.907C108.498 124.015 108.457 124.119 108.382 124.195C108.307 124.271 108.206 124.314 108.101 124.314H81.4899C80.0446 124.314 78.6585 123.727 77.6366 122.682C76.6146 121.638 76.0405 120.221 76.0405 118.743C76.0405 117.266 76.6146 115.849 77.6366 114.804C78.6585 113.759 80.0446 113.172 81.4899 113.172H108.101C108.206 113.172 108.307 113.215 108.382 113.291C108.457 113.368 108.499 113.471 108.499 113.579C108.499 113.687 108.457 113.79 108.382 113.866C108.307 113.943 108.206 113.985 108.101 113.985H81.4899C80.2563 113.987 79.0737 114.488 78.2018 115.38C77.3299 116.273 76.8402 117.482 76.8402 118.743C76.8402 120.004 77.3299 121.214 78.2018 122.106C79.0737 122.998 80.2563 123.5 81.4899 123.501H108.101C108.206 123.501 108.307 123.544 108.382 123.62C108.457 123.696 108.498 123.8 108.499 123.907Z" fill="#3199D8"/>
<path d="M107.862 115.856H80.0181C80.0077 115.856 79.9972 115.854 79.9875 115.85C79.9778 115.846 79.969 115.84 79.9615 115.832C79.9541 115.825 79.9482 115.816 79.9442 115.806C79.9401 115.796 79.938 115.785 79.938 115.775C79.938 115.764 79.9401 115.753 79.9442 115.743C79.9482 115.733 79.9541 115.724 79.9615 115.717C79.969 115.709 79.9778 115.703 79.9875 115.699C79.9972 115.695 80.0077 115.693 80.0181 115.693H107.862C107.883 115.693 107.903 115.702 107.918 115.717C107.933 115.733 107.941 115.753 107.941 115.775C107.941 115.796 107.933 115.817 107.918 115.832C107.903 115.847 107.883 115.856 107.862 115.856Z" fill="#CCCCCC"/>
<path d="M107.862 117.808H80.0181C80.0077 117.808 79.9972 117.806 79.9875 117.802C79.9778 117.798 79.969 117.792 79.9615 117.784C79.9541 117.777 79.9482 117.768 79.9442 117.758C79.9401 117.748 79.938 117.737 79.938 117.727C79.938 117.716 79.9401 117.705 79.9442 117.695C79.9482 117.685 79.9541 117.676 79.9615 117.669C79.969 117.661 79.9778 117.655 79.9875 117.651C79.9972 117.647 80.0077 117.645 80.0181 117.645H107.862C107.883 117.645 107.903 117.654 107.918 117.669C107.933 117.684 107.941 117.705 107.941 117.727C107.941 117.748 107.933 117.769 107.918 117.784C107.903 117.799 107.883 117.808 107.862 117.808Z" fill="#CCCCCC"/>
<path d="M107.862 119.76H80.0181C80.0077 119.76 79.9972 119.758 79.9875 119.754C79.9778 119.75 79.969 119.744 79.9615 119.736C79.9541 119.728 79.9482 119.719 79.9442 119.71C79.9401 119.7 79.938 119.689 79.938 119.678C79.938 119.668 79.9401 119.657 79.9442 119.647C79.9482 119.637 79.9541 119.628 79.9615 119.621C79.969 119.613 79.9778 119.607 79.9875 119.603C79.9972 119.599 80.0077 119.597 80.0181 119.597H107.862C107.883 119.597 107.903 119.606 107.918 119.621C107.933 119.636 107.941 119.657 107.941 119.678C107.941 119.7 107.933 119.72 107.918 119.736C107.903 119.751 107.883 119.76 107.862 119.76Z" fill="#CCCCCC"/>
<path d="M107.862 121.711H80.0181C80.0077 121.712 79.9972 121.71 79.9875 121.705C79.9778 121.701 79.969 121.695 79.9615 121.688C79.9541 121.68 79.9482 121.671 79.9442 121.661C79.9401 121.651 79.938 121.641 79.938 121.63C79.938 121.619 79.9401 121.609 79.9442 121.599C79.9482 121.589 79.9541 121.58 79.9615 121.572C79.969 121.565 79.9778 121.559 79.9875 121.555C79.9972 121.551 80.0077 121.549 80.0181 121.549H107.862C107.883 121.549 107.903 121.558 107.918 121.573C107.933 121.588 107.941 121.609 107.941 121.63C107.941 121.652 107.933 121.672 107.918 121.687C107.903 121.703 107.883 121.711 107.862 121.711Z" fill="#CCCCCC"/>
<path d="M102.978 102.277V112.85H77.067C76.3728 112.875 75.6808 112.756 75.0324 112.502C74.3839 112.247 73.7922 111.862 73.2926 111.368C72.7929 110.875 72.3956 110.284 72.1242 109.63C71.8528 108.977 71.7129 108.274 71.7129 107.564C71.7129 106.854 71.8528 106.151 72.1242 105.497C72.3956 104.843 72.7929 104.252 73.2926 103.759C73.7922 103.266 74.3839 102.88 75.0324 102.626C75.6808 102.371 76.3728 102.253 77.067 102.277H102.978Z" fill="#F2F2F2"/>
<path d="M103.614 112.769C103.614 112.876 103.572 112.98 103.498 113.056C103.423 113.132 103.322 113.175 103.216 113.175H76.6055C75.8899 113.175 75.1813 113.031 74.5201 112.751C73.8589 112.471 73.2582 112.061 72.7522 111.544C72.2461 111.026 71.8447 110.412 71.5709 109.736C71.297 109.06 71.1561 108.336 71.1561 107.604C71.1561 106.873 71.297 106.148 71.5709 105.472C71.8447 104.797 72.2461 104.182 72.7522 103.665C73.2582 103.148 73.8589 102.737 74.5201 102.458C75.1813 102.178 75.8899 102.033 76.6055 102.033H103.216C103.322 102.033 103.423 102.076 103.498 102.153C103.572 102.229 103.614 102.332 103.614 102.44C103.614 102.548 103.572 102.651 103.498 102.728C103.423 102.804 103.322 102.847 103.216 102.847H76.6055C75.3719 102.848 74.1893 103.35 73.3174 104.242C72.4455 105.134 71.9558 106.343 71.9558 107.604C71.9558 108.865 72.4455 110.075 73.3174 110.967C74.1893 111.859 75.3719 112.361 76.6055 112.362H103.216C103.322 112.362 103.423 112.405 103.498 112.481C103.572 112.557 103.614 112.661 103.614 112.769Z" fill="#3F3D56"/>
<path d="M102.978 104.717H75.1337C75.1232 104.717 75.1128 104.715 75.1031 104.711C75.0934 104.707 75.0846 104.701 75.0771 104.694C75.0697 104.686 75.0638 104.677 75.0597 104.667C75.0557 104.657 75.0536 104.647 75.0536 104.636C75.0536 104.625 75.0557 104.615 75.0597 104.605C75.0638 104.595 75.0697 104.586 75.0771 104.578C75.0846 104.571 75.0934 104.565 75.1031 104.561C75.1128 104.557 75.1232 104.554 75.1337 104.555H102.978C102.999 104.555 103.019 104.563 103.034 104.579C103.048 104.594 103.057 104.614 103.057 104.636C103.057 104.657 103.048 104.678 103.034 104.693C103.019 104.708 102.999 104.717 102.978 104.717Z" fill="#CCCCCC"/>
<path d="M102.978 106.669H75.1337C75.1232 106.669 75.1128 106.667 75.1031 106.663C75.0934 106.659 75.0846 106.653 75.0771 106.645C75.0697 106.638 75.0638 106.629 75.0597 106.619C75.0557 106.609 75.0536 106.598 75.0536 106.588C75.0536 106.577 75.0557 106.566 75.0597 106.557C75.0638 106.547 75.0697 106.538 75.0771 106.53C75.0846 106.523 75.0934 106.517 75.1031 106.512C75.1128 106.508 75.1232 106.506 75.1337 106.506H102.978C102.999 106.507 103.019 106.515 103.034 106.53C103.048 106.546 103.057 106.566 103.057 106.588C103.057 106.609 103.048 106.63 103.034 106.645C103.019 106.66 102.999 106.669 102.978 106.669Z" fill="#CCCCCC"/>
<path d="M102.978 108.621H75.1337C75.1232 108.621 75.1128 108.619 75.1031 108.615C75.0934 108.611 75.0846 108.605 75.0771 108.597C75.0697 108.59 75.0638 108.581 75.0597 108.571C75.0557 108.561 75.0536 108.55 75.0536 108.54C75.0536 108.529 75.0557 108.518 75.0597 108.508C75.0638 108.498 75.0697 108.489 75.0771 108.482C75.0846 108.474 75.0934 108.468 75.1031 108.464C75.1128 108.46 75.1232 108.458 75.1337 108.458H102.978C102.999 108.458 103.019 108.467 103.034 108.482C103.048 108.498 103.057 108.518 103.057 108.54C103.057 108.561 103.048 108.582 103.034 108.597C103.019 108.612 102.999 108.621 102.978 108.621Z" fill="#CCCCCC"/>
<path d="M102.978 110.573H75.1337C75.1232 110.573 75.1128 110.571 75.1031 110.567C75.0934 110.563 75.0846 110.557 75.0771 110.549C75.0697 110.542 75.0638 110.533 75.0597 110.523C75.0557 110.513 75.0536 110.502 75.0536 110.491C75.0536 110.481 75.0557 110.47 75.0597 110.46C75.0638 110.45 75.0697 110.441 75.0771 110.434C75.0846 110.426 75.0934 110.42 75.1031 110.416C75.1128 110.412 75.1232 110.41 75.1337 110.41H102.978C102.999 110.41 103.019 110.419 103.034 110.434C103.048 110.449 103.057 110.47 103.057 110.491C103.057 110.513 103.048 110.533 103.034 110.549C103.019 110.564 102.999 110.573 102.978 110.573Z" fill="#CCCCCC"/>
<path d="M133.12 161.568V152.35C133.12 151.942 132.961 151.552 132.679 151.263C132.398 150.975 132.015 150.813 131.617 150.813H97.426C97.0275 150.813 96.6452 150.975 96.3633 151.263C96.0815 151.552 95.9232 151.942 95.9231 152.35V161.568H133.12Z" fill="#CCCCCC"/>
<path d="M133.12 165.025H95.9232V176.932H133.12V165.025Z" fill="#CCCCCC"/>
<path d="M95.9231 180.389V189.607C95.9232 190.015 96.0815 190.405 96.3633 190.693C96.6452 190.982 97.0275 191.143 97.426 191.143H131.617C132.015 191.143 132.398 190.982 132.679 190.693C132.961 190.405 133.12 190.015 133.12 189.607V180.389H95.9231Z" fill="#CCCCCC"/>
<path d="M114.334 157.727C114.956 157.727 115.461 157.211 115.461 156.575C115.461 155.939 114.956 155.423 114.334 155.423C113.711 155.423 113.206 155.939 113.206 156.575C113.206 157.211 113.711 157.727 114.334 157.727Z" fill="white"/>
<path d="M114.334 173.091C114.956 173.091 115.461 172.575 115.461 171.939C115.461 171.302 114.956 170.786 114.334 170.786C113.711 170.786 113.206 171.302 113.206 171.939C113.206 172.575 113.711 173.091 114.334 173.091Z" fill="white"/>
<path d="M114.394 188.129C115.016 188.129 115.521 187.614 115.521 186.977C115.521 186.341 115.016 185.825 114.394 185.825C113.771 185.825 113.267 186.341 113.267 186.977C113.267 187.614 113.771 188.129 114.394 188.129Z" fill="white"/>
<path d="M128.903 140.303V150.875H102.992C102.298 150.9 101.606 150.782 100.957 150.527C100.309 150.272 99.7171 149.887 99.2174 149.394C98.7178 148.9 98.3204 148.309 98.049 147.656C97.7777 147.002 97.6378 146.299 97.6378 145.589C97.6378 144.879 97.7777 144.176 98.049 143.522C98.3204 142.869 98.7178 142.278 99.2174 141.784C99.7171 141.291 100.309 140.906 100.957 140.651C101.606 140.397 102.298 140.278 102.992 140.303H128.903Z" fill="#F2F2F2"/>
<path d="M129.539 150.794C129.539 150.902 129.497 151.005 129.422 151.081C129.348 151.158 129.247 151.201 129.141 151.201H102.53C101.814 151.201 101.105 151.058 100.444 150.778C99.7819 150.498 99.1806 150.088 98.6741 149.571C98.1676 149.053 97.7658 148.439 97.4916 147.763C97.2175 147.086 97.0764 146.362 97.0764 145.63C97.0764 144.898 97.2175 144.173 97.4916 143.497C97.7658 142.821 98.1676 142.206 98.6741 141.689C99.1806 141.172 99.7819 140.761 100.444 140.482C101.105 140.202 101.814 140.058 102.53 140.059H129.141C129.247 140.059 129.348 140.102 129.422 140.178C129.497 140.254 129.539 140.358 129.539 140.465C129.539 140.573 129.497 140.677 129.422 140.753C129.348 140.829 129.247 140.872 129.141 140.872H102.53C101.297 140.873 100.114 141.375 99.2423 142.267C98.3704 143.159 97.8806 144.369 97.8806 145.63C97.8806 146.891 98.3704 148.1 99.2423 148.992C100.114 149.884 101.297 150.386 102.53 150.387H129.141C129.247 150.387 129.348 150.43 129.422 150.506C129.497 150.583 129.539 150.686 129.539 150.794Z" fill="#3F3D56"/>
<path d="M128.903 142.743H101.059C101.048 142.743 101.038 142.741 101.028 142.737C101.018 142.733 101.009 142.727 101.002 142.719C100.995 142.711 100.989 142.702 100.985 142.693C100.981 142.683 100.979 142.672 100.979 142.661C100.979 142.651 100.981 142.64 100.985 142.63C100.989 142.62 100.995 142.611 101.002 142.604C101.009 142.596 101.018 142.59 101.028 142.586C101.038 142.582 101.048 142.58 101.059 142.58H128.903C128.924 142.58 128.944 142.589 128.958 142.604C128.973 142.619 128.982 142.64 128.982 142.661C128.982 142.683 128.973 142.703 128.958 142.719C128.944 142.734 128.924 142.742 128.903 142.743Z" fill="#CCCCCC"/>
<path d="M128.903 144.694H101.059C101.048 144.695 101.038 144.692 101.028 144.688C101.018 144.684 101.009 144.678 101.002 144.671C100.995 144.663 100.989 144.654 100.985 144.644C100.981 144.634 100.979 144.624 100.979 144.613C100.979 144.602 100.981 144.592 100.985 144.582C100.989 144.572 100.995 144.563 101.002 144.555C101.009 144.548 101.018 144.542 101.028 144.538C101.038 144.534 101.048 144.532 101.059 144.532H128.903C128.924 144.532 128.944 144.541 128.958 144.556C128.973 144.571 128.982 144.592 128.982 144.613C128.982 144.635 128.973 144.655 128.958 144.67C128.944 144.686 128.924 144.694 128.903 144.694Z" fill="#CCCCCC"/>
<path d="M128.903 146.646H101.059C101.048 146.646 101.038 146.644 101.028 146.64C101.018 146.636 101.009 146.63 101.002 146.623C100.995 146.615 100.989 146.606 100.985 146.596C100.981 146.586 100.979 146.576 100.979 146.565C100.979 146.554 100.981 146.544 100.985 146.534C100.989 146.524 100.995 146.515 101.002 146.507C101.009 146.5 101.018 146.494 101.028 146.49C101.038 146.486 101.048 146.484 101.059 146.484H128.903C128.924 146.484 128.944 146.492 128.958 146.508C128.973 146.523 128.982 146.543 128.982 146.565C128.982 146.586 128.973 146.607 128.958 146.622C128.944 146.638 128.924 146.646 128.903 146.646Z" fill="#CCCCCC"/>
<path d="M128.903 148.598H101.059C101.048 148.598 101.038 148.596 101.028 148.592C101.018 148.588 101.009 148.582 101.002 148.575C100.995 148.567 100.989 148.558 100.985 148.548C100.981 148.538 100.979 148.528 100.979 148.517C100.979 148.506 100.981 148.495 100.985 148.486C100.989 148.476 100.995 148.467 101.002 148.459C101.009 148.452 101.018 148.446 101.028 148.442C101.038 148.437 101.048 148.435 101.059 148.435H128.903C128.924 148.436 128.944 148.444 128.958 148.46C128.973 148.475 128.982 148.495 128.982 148.517C128.982 148.538 128.973 148.559 128.958 148.574C128.944 148.589 128.924 148.598 128.903 148.598Z" fill="#CCCCCC"/>
<path d="M93.9721 71.2976V3.88894C93.973 3.12302 94.271 2.38871 94.8007 1.84712C95.3305 1.30552 96.0488 1.00087 96.7981 1H148.922C149.671 1.00088 150.389 1.30553 150.919 1.84712C151.449 2.38871 151.747 3.12302 151.747 3.88894V71.2976C151.747 72.0635 151.449 72.7978 150.919 73.3394C150.389 73.881 149.671 74.1856 148.922 74.1865H96.7981C96.0488 74.1856 95.3305 73.881 94.8007 73.3394C94.271 72.7978 93.973 72.0635 93.9721 71.2976ZM96.7981 1.64199C96.2153 1.64266 95.6566 1.8796 95.2446 2.30084C94.8325 2.72209 94.6007 3.29322 94.6001 3.88894V71.2976C94.6007 71.8933 94.8325 72.4644 95.2446 72.8857C95.6566 73.3069 96.2153 73.5438 96.7981 73.5445H148.922C149.504 73.5438 150.063 73.3069 150.475 72.8857C150.887 72.4644 151.119 71.8933 151.119 71.2976V3.88894C151.119 3.29322 150.887 2.72208 150.475 2.30084C150.063 1.8796 149.504 1.64266 148.922 1.64199H96.7981Z" fill="#3199D8" stroke="#3199D8" stroke-width="2"/>
<path d="M125.783 31.9572V18.116C125.783 17.7331 125.932 17.3659 126.197 17.0951C126.462 16.8243 126.821 16.672 127.196 16.6716H138.669C139.044 16.672 139.403 16.8243 139.668 17.0951C139.933 17.3659 140.082 17.7331 140.082 18.116V31.9572C140.082 32.3401 139.933 32.7073 139.668 32.9781C139.403 33.2489 139.044 33.4012 138.669 33.4016H127.196C126.821 33.4012 126.462 33.2489 126.197 32.9781C125.932 32.7073 125.783 32.3401 125.783 31.9572Z" fill="#3199D8"/>
<path d="M103.489 38.377V24.5359C103.489 24.153 103.638 23.7858 103.903 23.515C104.168 23.2442 104.527 23.0919 104.902 23.0915H116.375C116.75 23.0919 117.109 23.2442 117.374 23.515C117.639 23.7858 117.788 24.153 117.788 24.5359V38.377C117.788 38.76 117.639 39.1272 117.374 39.398C117.109 39.6688 116.75 39.8211 116.375 39.8215H104.902C104.527 39.8211 104.168 39.6688 103.903 39.398C103.638 39.1272 103.489 38.76 103.489 38.377Z" fill="#CCCCCC"/>
<path d="M121.387 57.9576V44.1165C121.387 43.7335 121.536 43.3664 121.801 43.0956C122.066 42.8248 122.425 42.6725 122.8 42.672H134.273C134.648 42.6725 135.007 42.8248 135.272 43.0956C135.537 43.3664 135.686 43.7335 135.686 44.1165V57.9576C135.686 58.3406 135.537 58.7077 135.272 58.9785C135.007 59.2493 134.648 59.4017 134.273 59.4021H122.8C122.425 59.4017 122.066 59.2493 121.801 58.9785C121.536 58.7077 121.387 58.3406 121.387 57.9576Z" fill="#FF6584"/>
<path d="M189.951 121.238H178.146C178.034 121.238 177.924 121.264 177.823 121.315L174.844 122.84C174.746 122.882 174.662 122.954 174.603 123.044C174.544 123.135 174.513 123.242 174.513 123.351C174.513 123.46 174.544 123.566 174.603 123.657C174.662 123.748 174.746 123.819 174.844 123.862L177.823 125.386C177.924 125.437 178.034 125.463 178.146 125.463H189.951C190.114 125.473 190.274 125.417 190.396 125.307C190.519 125.197 190.594 125.042 190.605 124.876V121.826C190.594 121.66 190.519 121.505 190.396 121.395C190.274 121.285 190.114 121.229 189.951 121.238Z" fill="#3F3D56"/>
<path d="M190.605 121.826V124.876C190.594 125.042 190.519 125.197 190.396 125.307C190.274 125.417 190.114 125.473 189.951 125.463H187.599V121.238H189.951C190.114 121.229 190.274 121.285 190.396 121.395C190.519 121.505 190.594 121.66 190.605 121.826Z" fill="#3199D8"/>
<path d="M189.863 98.4229C190.397 98.187 190.975 98.0693 191.557 98.0774C192.139 98.0856 192.713 98.2194 193.242 98.4701C193.77 98.7209 194.24 99.0829 194.622 99.5324C195.004 99.982 195.289 100.509 195.457 101.079C195.51 101.259 195.55 101.444 195.578 101.63L212.086 109.999L215.907 107.41L220.66 113.005L214.827 117.848C214.125 118.426 213.26 118.757 212.36 118.793C211.46 118.828 210.572 118.566 209.829 118.045L193.08 106.204C192.955 106.258 192.828 106.306 192.698 106.347C192.141 106.519 191.554 106.569 190.976 106.493C190.399 106.418 189.843 106.218 189.346 105.908C188.849 105.597 188.422 105.183 188.092 104.692C187.763 104.201 187.539 103.644 187.434 103.058C187.403 102.888 187.383 102.717 187.373 102.544C187.327 101.679 187.54 100.821 187.985 100.084C188.431 99.3474 189.086 98.7677 189.863 98.4229Z" fill="#FFB8B8"/>
<path d="M224.247 149.949H206.208C206.208 150.479 187.618 150.909 187.618 150.909C187.326 151.134 187.06 151.391 186.825 151.677C186.119 152.538 185.733 153.626 185.735 154.75V155.518C185.736 156.791 186.231 158.012 187.111 158.913C187.992 159.813 189.186 160.319 190.432 160.319H224.247C225.492 160.318 226.686 159.812 227.566 158.912C228.447 158.012 228.942 156.791 228.943 155.518V154.75C228.941 153.477 228.446 152.257 227.566 151.357C226.685 150.457 225.492 149.95 224.247 149.949Z" fill="#3F3D56"/>
<path d="M204.625 192.393H209.509V160.129H204.625V192.393Z" fill="#3F3D56"/>
<path d="M190.723 192.217C190.723 192.757 198.125 192.426 207.255 192.426C216.385 192.426 223.787 192.757 223.787 192.217C223.787 191.678 216.385 187.399 207.255 187.399C198.125 187.399 190.723 191.678 190.723 192.217Z" fill="#3F3D56"/>
<path d="M195.133 188.436L190.527 188.435L188.335 176.222L195.133 176.222L195.133 188.436Z" fill="#FFB8B8"/>
<path d="M196.307 193L181.455 192.999V192.807C181.455 192.031 181.604 191.263 181.895 190.546C182.185 189.829 182.611 189.177 183.148 188.629C183.685 188.08 184.322 187.644 185.024 187.347C185.725 187.05 186.477 186.898 187.236 186.898H187.236L196.308 186.898L196.307 193Z" fill="#2F2E41"/>
<path d="M188.243 180.862L179.06 159.811C178.294 158.036 178.209 156.032 178.823 154.197C179.437 152.361 180.705 150.83 182.374 149.907L202.292 138.988L211.381 138.198L219.765 137.419L219.826 137.523C219.903 137.657 221.706 140.84 220.487 144.33C219.563 146.978 217.159 149.045 213.341 150.476C204.431 153.816 194.138 156.671 190.127 157.743C189.95 157.789 189.784 157.873 189.641 157.99C189.497 158.106 189.38 158.252 189.296 158.419C189.212 158.583 189.162 158.763 189.149 158.948C189.136 159.133 189.161 159.319 189.222 159.494L197.754 179.088C197.843 179.337 197.875 179.603 197.847 179.866C197.82 180.129 197.734 180.382 197.596 180.606C197.457 180.83 197.271 181.018 197.05 181.157C196.829 181.295 196.58 181.38 196.322 181.404L189.948 181.878C189.894 181.884 189.84 181.886 189.786 181.886C189.46 181.886 189.14 181.789 188.866 181.608C188.593 181.426 188.376 181.167 188.243 180.862Z" fill="#2F2E41"/>
<path d="M197.387 188.436L192.781 188.435L190.589 176.222L197.388 176.222L197.387 188.436Z" fill="#FFB8B8"/>
<path d="M198.562 193L183.709 192.999V192.807C183.709 192.031 183.859 191.263 184.149 190.546C184.44 189.829 184.866 189.177 185.402 188.629C185.939 188.08 186.577 187.644 187.278 187.347C187.979 187.05 188.731 186.898 189.49 186.898H189.491L198.562 186.898L198.562 193Z" fill="#2F2E41"/>
<path d="M190.873 182.014L181.69 160.963C180.924 159.189 180.839 157.184 181.453 155.349C182.067 153.514 183.335 151.982 185.004 151.059L204.922 140.14L214.011 139.35L222.395 138.571L222.456 138.676C222.533 138.809 224.336 141.992 223.117 145.482C222.193 148.13 219.789 150.198 215.971 151.629C207.061 154.969 196.769 157.823 192.757 158.895C192.58 158.941 192.414 159.026 192.271 159.142C192.128 159.259 192.01 159.405 191.926 159.571C191.842 159.735 191.792 159.916 191.779 160.101C191.766 160.286 191.791 160.471 191.852 160.646L200.384 180.24C200.473 180.489 200.505 180.755 200.477 181.018C200.45 181.281 200.364 181.535 200.226 181.758C200.087 181.982 199.901 182.17 199.68 182.309C199.459 182.447 199.21 182.532 198.952 182.556L192.578 183.031C192.524 183.036 192.47 183.039 192.416 183.039C192.09 183.039 191.77 182.942 191.496 182.76C191.223 182.578 191.006 182.319 190.873 182.014Z" fill="#2F2E41"/>
<path d="M186.296 117.705C182.437 112.458 179.387 106.638 177.251 100.447C177.127 100.077 177.136 99.6734 177.275 99.3092C177.415 98.9449 177.677 98.6431 178.014 98.4576L191.219 91.2245C191.432 91.1065 191.67 91.04 191.912 91.03C192.155 91.0199 192.396 91.0666 192.619 91.1664C192.845 91.2669 193.046 91.419 193.206 91.611C193.366 91.8029 193.482 92.0297 193.543 92.2741C195.08 98.2397 197.969 103.752 201.977 108.364C202.142 108.552 202.263 108.776 202.33 109.018C202.398 109.261 202.41 109.516 202.367 109.765C202.325 110.009 202.229 110.241 202.087 110.442C201.944 110.642 201.759 110.807 201.544 110.924L188.339 118.157C188.002 118.341 187.611 118.397 187.237 118.314C186.863 118.231 186.529 118.015 186.296 117.705Z" fill="#98CCEC"/>
<path d="M187.197 117.013C187.268 117.103 187.368 117.166 187.479 117.189C187.591 117.213 187.706 117.196 187.807 117.141L201.012 109.908C201.076 109.874 201.131 109.825 201.174 109.765C201.216 109.706 201.245 109.637 201.257 109.564C201.271 109.487 201.267 109.408 201.246 109.332C201.224 109.257 201.187 109.188 201.135 109.13C197.009 104.382 194.035 98.7077 192.453 92.5663C192.435 92.4904 192.399 92.4199 192.35 92.3603C192.301 92.3006 192.238 92.2535 192.168 92.2226C192.102 92.1923 192.03 92.1782 191.958 92.1812C191.885 92.1843 191.814 92.2045 191.751 92.2402L178.546 99.4733C178.446 99.5285 178.368 99.6177 178.326 99.7255C178.283 99.8333 178.279 99.9529 178.314 100.064C180.412 106.144 183.408 111.859 187.197 117.013Z" fill="white"/>
<path d="M230.165 115.776L219.823 119.793L217.298 112.623C216.963 111.671 216.968 110.629 217.312 109.68C217.656 108.731 218.317 107.937 219.178 107.438C220.049 106.933 221.068 106.764 222.05 106.96C223.033 107.156 223.915 107.705 224.536 108.508L230.165 115.776Z" fill="#6C63FF"/>
<path d="M203.861 144.183C203.643 144.026 203.461 143.823 203.326 143.588C203.191 143.353 203.106 143.091 203.078 142.82C201.753 130.18 202.676 120.288 205.898 112.578C206.465 111.249 207.32 110.068 208.398 109.125C209.477 108.181 210.75 107.5 212.122 107.132L220.482 106.701L220.525 106.722C222.412 107.667 223.95 109.208 224.913 111.116C225.875 113.025 226.21 115.2 225.868 117.319C223.179 124.564 220.928 132.107 222.645 138.193C222.717 138.447 222.738 138.714 222.706 138.977C222.675 139.24 222.592 139.493 222.463 139.723C222.337 139.944 222.169 140.138 221.967 140.29C221.766 140.443 221.536 140.551 221.292 140.61L205.37 144.482C205.112 144.544 204.844 144.55 204.584 144.499C204.323 144.447 204.077 144.34 203.861 144.183Z" fill="#3199D8"/>
<path d="M217.692 103.509C222.789 103.509 226.92 99.2852 226.92 94.0751C226.92 88.8649 222.789 84.6413 217.692 84.6413C212.596 84.6413 208.464 88.8649 208.464 94.0751C208.464 99.2852 212.596 103.509 217.692 103.509Z" fill="#FFB8B8"/>
<path d="M192.086 101.547L184.894 104.792C184.62 104.915 184.31 104.922 184.031 104.812C183.753 104.702 183.528 104.483 183.407 104.203L183.229 103.792C183.109 103.512 183.102 103.195 183.21 102.91C183.318 102.625 183.532 102.396 183.805 102.272L190.997 99.0266C191.271 98.9036 191.581 98.8964 191.86 99.0068C192.138 99.1172 192.363 99.3361 192.484 99.6154L192.662 100.027C192.782 100.307 192.789 100.624 192.681 100.909C192.573 101.194 192.359 101.423 192.086 101.547Z" fill="#98CCEC"/>
<path d="M194.716 106.54L187.524 109.786C187.25 109.909 186.94 109.916 186.662 109.805C186.383 109.695 186.158 109.476 186.037 109.197L185.86 108.785C185.739 108.505 185.732 108.188 185.84 107.903C185.948 107.618 186.162 107.389 186.436 107.265L193.627 104.02C193.901 103.897 194.211 103.89 194.49 104C194.768 104.11 194.993 104.329 195.114 104.609L195.292 105.021C195.412 105.3 195.419 105.617 195.311 105.902C195.203 106.187 194.989 106.416 194.716 106.54Z" fill="#98CCEC"/>
<path d="M200.262 126.043L184.228 113.112C184.101 113.158 183.971 113.198 183.839 113.23C183.273 113.365 182.686 113.377 182.115 113.265C181.544 113.153 181.003 112.92 180.526 112.58C180.046 112.24 179.643 111.799 179.343 111.287C179.043 110.775 178.854 110.203 178.788 109.61C178.68 108.662 178.889 107.704 179.381 106.893C179.873 106.081 180.618 105.464 181.496 105.14C182.044 104.939 182.628 104.858 183.209 104.904C183.789 104.949 184.354 105.12 184.866 105.404C185.377 105.688 185.825 106.08 186.178 106.553C186.532 107.026 186.783 107.57 186.917 108.15C186.958 108.334 186.987 108.52 187.003 108.708L202.964 118.121L206.936 115.783L211.336 121.672L205.169 126.166C204.447 126.687 203.579 126.957 202.696 126.935C201.812 126.913 200.958 126.6 200.262 126.043Z" fill="#FFB8B8"/>
<path d="M213.292 123.506L204.144 117.146L208.443 110.921C209.014 110.095 209.853 109.501 210.81 109.245C211.768 108.989 212.783 109.088 213.677 109.523C214.581 109.964 215.301 110.72 215.707 111.656C216.113 112.591 216.178 113.644 215.891 114.625L213.292 123.506Z" fill="#3199D8"/>
<path d="M214.309 92.67C211.937 94.3295 208.823 96.0353 206.4 94.2681C204.81 93.1077 204.309 90.9589 204.954 89.0733C206.114 85.6823 209.3 84.1894 212.348 83.0451C216.31 81.5574 220.624 80.374 224.713 81.4393C228.803 82.5047 232.418 86.5528 231.68 90.8008C231.086 94.2171 227.934 97.0596 228.381 100.499C228.831 103.961 232.639 105.783 236.001 106.401C239.363 107.02 243.125 107.219 245.541 109.687C248.623 112.836 247.854 118.465 244.953 121.79C242.053 125.115 237.677 126.622 233.436 127.646C227.817 129.004 221.74 129.717 216.404 127.465C211.067 125.212 206.915 119.147 208.461 113.46C209.114 111.058 210.652 109.028 212.138 107.052C213.625 105.076 215.13 103.009 215.697 100.584C216.17 98.5637 215.82 96.2177 214.509 94.702C214.271 94.4367 214.121 94.101 214.081 93.7431C214.041 93.3852 214.113 93.0235 214.286 92.7099L214.309 92.67Z" fill="#2F2E41"/>
<path d="M40.9809 138.505C38.603 139.36 36.0499 139.574 33.5676 139.127C31.0852 138.68 28.7574 137.587 26.8082 135.953C21.8442 131.694 20.2878 124.677 19.0214 118.179C17.7729 111.773 16.5243 105.367 15.2757 98.9607L23.1177 104.481C28.7572 108.45 34.5237 112.547 38.4284 118.297C42.3331 124.047 44.0376 131.896 40.9002 138.118" fill="#E6E6E6"/>
<path d="M40.3105 161.773C41.1043 155.863 41.9204 149.877 41.3637 143.903C40.8692 138.598 39.286 133.416 36.0627 129.168C34.3517 126.917 32.2698 124.988 29.9106 123.469C29.2954 123.072 28.7292 124.068 29.3417 124.464C33.4239 127.101 36.5812 130.996 38.3586 135.586C40.3217 140.69 40.637 146.254 40.2987 151.677C40.0941 154.956 39.6605 158.213 39.2236 161.467C39.1892 161.614 39.2107 161.769 39.2837 161.901C39.3568 162.032 39.476 162.13 39.6173 162.176C39.7614 162.215 39.915 162.195 40.0448 162.12C40.1745 162.045 40.27 161.92 40.3105 161.773H40.3105Z" fill="#F2F2F2"/>
<path d="M32.6657 151.315C31.6459 152.899 30.244 154.189 28.5952 155.059C26.9464 155.929 25.1063 156.35 23.2521 156.282C18.4867 156.05 14.5139 152.65 10.9377 149.423L0.359879 139.875L7.36065 139.533C12.3952 139.286 17.5596 139.056 22.3548 140.644C27.15 142.231 31.5725 146.05 32.4493 151.125" fill="#E6E6E6"/>
<path d="M42.5536 165.171C38.7334 158.26 34.3022 150.58 26.3845 148.126C24.183 147.446 21.8746 147.202 19.5835 147.408C18.8615 147.472 19.0418 148.609 19.7625 148.546C23.6028 148.22 27.4357 149.257 30.6158 151.481C33.6761 153.611 36.0588 156.571 38.0755 159.711C39.3108 161.634 40.4173 163.638 41.524 165.64C41.8777 166.28 42.9114 165.818 42.5536 165.171Z" fill="#F2F2F2"/>
<path d="M48.6748 172.444C48.546 170.92 48.0105 169.46 47.1266 168.225C46.2426 166.99 45.0441 166.027 43.6616 165.44V161.445H37.1071V165.566C35.7926 166.181 34.6614 167.142 33.8287 168.351C32.9959 169.559 32.4916 170.972 32.367 172.444L30.8257 190.759H50.216L48.6748 172.444Z" fill="#F2F2F2"/>
</g>
<defs>
<clipPath id="clip0_508_12888">
<rect width="260" height="193" fill="white"/>
</clipPath>
</defs>
</svg>
