<svg width="166" height="192" viewBox="0 0 166 192" fill="none" xmlns="http://www.w3.org/2000/svg">
<g clip-path="url(#clip0_508_13082)">
<path d="M165.879 73.2826C165.879 73.8281 165.873 74.3726 165.86 74.9163C165.855 75.2717 165.844 75.6271 165.83 75.9825C165.827 76.0844 165.824 76.1836 165.819 76.2855C165.811 76.4811 165.802 76.674 165.794 76.8641C165.733 78.1341 165.64 79.395 165.513 80.6467C165.508 80.7073 165.502 80.7679 165.497 80.8257C165.483 80.9497 165.472 81.0737 165.455 81.1977C165.417 81.5696 165.375 81.9415 165.328 82.3079C165.298 82.5559 165.268 82.8011 165.235 83.049C165.218 83.1675 165.202 83.2859 165.188 83.4016C165.169 83.5311 165.152 83.6579 165.133 83.7846C165.125 83.8397 165.116 83.8948 165.108 83.9526C165.081 84.14 165.053 84.3301 165.023 84.5174C164.987 84.7626 164.948 85.005 164.907 85.2502C164.868 85.4927 164.827 85.7351 164.783 85.9775C164.742 86.22 164.698 86.4624 164.654 86.7048C164.609 86.95 164.563 87.1925 164.516 87.4349C164.279 88.6361 164.014 89.8272 163.722 91.0081C163.607 91.4682 163.488 91.9274 163.367 92.3856C163.166 93.1295 162.954 93.8697 162.731 94.6062C162.667 94.81 162.604 95.0139 162.54 95.215C162.469 95.4464 162.394 95.6778 162.32 95.9065C162.246 96.1379 162.171 96.3666 162.094 96.5953C162.017 96.8239 161.94 97.0526 161.86 97.2812C161.783 97.5071 161.703 97.7358 161.62 97.9617C161.54 98.1904 161.458 98.4163 161.375 98.6422C161.29 98.8681 161.207 99.094 161.122 99.3172C160.951 99.769 160.775 100.216 160.595 100.659C160.507 100.882 160.416 101.105 160.323 101.326C159.956 102.213 159.572 103.09 159.171 103.957C159.083 104.149 158.995 104.342 158.904 104.532C158.843 104.659 158.785 104.783 158.725 104.91C158.623 105.119 158.524 105.326 158.422 105.532C158.32 105.742 158.215 105.954 158.108 106.166C157.896 106.585 157.68 107.003 157.46 107.42C157.243 107.836 157.019 108.252 156.791 108.662C156.562 109.073 156.331 109.483 156.097 109.888C155.978 110.092 155.86 110.296 155.741 110.497C155.265 111.304 154.772 112.102 154.264 112.891C153.76 113.676 153.24 114.452 152.702 115.219C152.435 115.602 152.162 115.985 151.887 116.362C151.777 116.514 151.667 116.663 151.556 116.811C151.421 116.999 151.281 117.183 151.14 117.368C145.17 125.309 137.645 131.953 129.025 136.894C120.405 141.835 110.87 144.97 101 146.109C91.1298 147.247 81.1312 146.366 71.6126 143.517C62.0941 140.669 53.2547 135.913 45.6327 129.539C44.8282 128.867 44.0384 128.178 43.2634 127.473C38.2898 122.944 33.9601 117.755 30.3948 112.051C29.9513 111.337 29.516 110.615 29.0973 109.888C22.6687 98.761 19.2939 86.1331 19.3143 73.2826C19.3143 32.8091 52.1234 -1.70661e-05 92.5969 -1.70661e-05C104.775 -0.00739821 116.763 3.023 127.475 8.81678C138.187 14.6106 147.285 22.9847 153.945 33.181C154.066 33.3656 154.187 33.5529 154.309 33.7403C160.93 44.0452 164.846 55.8534 165.695 68.0729C165.819 69.792 165.88 71.5286 165.879 73.2826Z" fill="#F2F2F2"/>
<path d="M154.309 33.7403H52.8011C52.7281 33.7385 52.6587 33.7083 52.6077 33.656C52.5567 33.6038 52.5282 33.5337 52.5282 33.4607C52.5282 33.3877 52.5567 33.3175 52.6077 33.2653C52.6587 33.213 52.7281 33.1828 52.8011 33.181H153.945C154.066 33.3656 154.187 33.553 154.309 33.7403Z" fill="#CACACA"/>
<path d="M58.9596 29.8252C60.6219 29.8252 61.9695 28.4476 61.9695 26.7482C61.9695 25.0488 60.6219 23.6712 58.9596 23.6712C57.2972 23.6712 55.9496 25.0488 55.9496 26.7482C55.9496 28.4476 57.2972 29.8252 58.9596 29.8252Z" fill="#3199D8"/>
<path d="M69.3574 29.8252C71.0198 29.8252 72.3674 28.4476 72.3674 26.7482C72.3674 25.0488 71.0198 23.6712 69.3574 23.6712C67.6951 23.6712 66.3475 25.0488 66.3475 26.7482C66.3475 28.4476 67.6951 29.8252 69.3574 29.8252Z" fill="#3199D8"/>
<path d="M79.7553 29.8252C81.4177 29.8252 82.7653 28.4476 82.7653 26.7482C82.7653 25.0488 81.4177 23.6712 79.7553 23.6712C78.093 23.6712 76.7454 25.0488 76.7454 26.7482C76.7454 28.4476 78.093 29.8252 79.7553 29.8252Z" fill="#3199D8"/>
<path d="M165.695 68.0729C163.047 69.2768 160.675 71.2218 158.604 73.8969C156.209 76.9908 153.645 79.17 151.025 80.6466C150.901 80.7155 150.779 80.7816 150.655 80.8478C148.307 82.1135 145.731 82.9027 143.076 83.1702C142.275 83.251 141.469 83.2897 140.663 83.2859C140.327 83.2832 139.991 83.2749 139.658 83.2584C138.867 83.2198 138.084 83.1427 137.316 83.0325C132.902 82.4044 128.91 80.7073 125.954 79.1122C121.904 76.8783 117.507 75.3398 112.948 74.5609C112.132 74.4259 111.319 74.3203 110.507 74.2441C110.171 74.211 109.838 74.1862 109.504 74.1642C108.686 74.1091 107.869 74.0834 107.052 74.0871C106.634 74.0898 106.218 74.0981 105.799 74.1146C98.7625 74.3901 89.5857 76.3957 81.3566 83.4017C81.2464 83.4953 81.1389 83.589 81.0287 83.6827C80.9268 83.7708 80.8248 83.8617 80.7229 83.9527C79.4204 85.1105 78.1929 86.35 77.0478 87.6636C75.735 89.1682 74.5203 90.7556 73.4112 92.416C72.0941 94.3599 70.5557 96.1442 68.8269 97.7331C66.2698 100.093 64.222 102.95 62.8092 106.13C61.3965 109.31 60.6486 112.745 60.6115 116.225V116.362C60.6088 116.511 60.6088 116.663 60.6088 116.811H151.559C151.669 116.663 151.779 116.514 151.887 116.362C152.162 115.985 152.435 115.602 152.702 115.219C153.24 114.453 153.76 113.677 154.264 112.891C154.774 112.103 155.266 111.305 155.741 110.497C155.86 110.296 155.978 110.092 156.097 109.888C156.331 109.483 156.562 109.073 156.791 108.662C157.019 108.252 157.243 107.836 157.46 107.42C157.681 107.004 157.896 106.586 158.108 106.166C158.215 105.954 158.32 105.742 158.422 105.532C158.524 105.326 158.623 105.119 158.725 104.91C158.785 104.783 158.843 104.659 158.904 104.532C158.995 104.342 159.083 104.149 159.171 103.957C159.573 103.089 159.957 102.212 160.323 101.326C160.416 101.105 160.507 100.882 160.595 100.659C160.774 100.215 160.95 99.7681 161.122 99.3172C161.207 99.094 161.29 98.8681 161.375 98.6422C161.458 98.4163 161.54 98.1904 161.62 97.9617C161.703 97.7359 161.783 97.5072 161.86 97.2813C161.94 97.0526 162.017 96.8239 162.094 96.5953C162.171 96.3666 162.246 96.1379 162.32 95.9065C162.394 95.6779 162.469 95.4464 162.54 95.215C162.604 95.0139 162.667 94.81 162.731 94.6062C162.954 93.8706 163.166 93.1304 163.367 92.3857C163.488 91.9283 163.607 91.4692 163.722 91.0082C164.014 89.829 164.279 88.638 164.516 87.435C164.563 87.1925 164.609 86.9501 164.654 86.7049C164.698 86.4624 164.742 86.22 164.783 85.9776C164.827 85.7351 164.868 85.4927 164.907 85.2503C164.948 85.0051 164.987 84.7626 165.023 84.5174C165.053 84.3301 165.081 84.14 165.108 83.9527C165.116 83.8948 165.125 83.8397 165.133 83.7846C165.152 83.6551 165.169 83.5284 165.185 83.4017C165.202 83.2832 165.218 83.1647 165.235 83.049C165.268 82.8011 165.298 82.5559 165.328 82.3079C165.375 81.9415 165.417 81.5696 165.455 81.1977H165.458C165.469 81.0737 165.483 80.9497 165.497 80.8258C165.502 80.7679 165.508 80.7073 165.513 80.6467C165.64 79.3959 165.733 78.1351 165.794 76.8641C165.802 76.674 165.811 76.4812 165.819 76.2856C165.824 76.1836 165.827 76.0844 165.83 75.9825C165.844 75.6271 165.855 75.2717 165.86 74.9163C165.874 74.3736 165.88 73.829 165.879 73.2826C165.879 71.5304 165.818 69.7939 165.695 68.0729Z" fill="#3199D8"/>
<path d="M80.416 86.5493H79.4109V116.011H80.416V86.5493Z" fill="#3F3D56"/>
<path d="M110.508 72.7897H109.503V116.011H110.508V72.7897Z" fill="#3F3D56"/>
<path d="M140.663 81.836H139.657V116.011H140.663V81.836Z" fill="#3F3D56"/>
<path d="M110.068 76.5574C111.766 76.5574 113.143 75.1807 113.143 73.4825C113.143 71.7843 111.766 70.4076 110.068 70.4076C108.37 70.4076 106.993 71.7843 106.993 73.4825C106.993 75.1807 108.37 76.5574 110.068 76.5574Z" fill="#3F3D56"/>
<path d="M140.222 85.1011C141.92 85.1011 143.297 83.7244 143.297 82.0262C143.297 80.328 141.92 78.9513 140.222 78.9513C138.524 78.9513 137.147 80.328 137.147 82.0262C137.147 83.7244 138.524 85.1011 140.222 85.1011Z" fill="#3F3D56"/>
<path d="M79.3625 87.1447C81.0607 87.1447 82.4374 85.7681 82.4374 84.0699C82.4374 82.3716 81.0607 80.995 79.3625 80.995C77.6643 80.995 76.2876 82.3716 76.2876 84.0699C76.2876 85.7681 77.6643 87.1447 79.3625 87.1447Z" fill="#3F3D56"/>
<path d="M151.887 116.362C151.777 116.514 151.666 116.663 151.556 116.811C151.421 116.999 151.281 117.183 151.14 117.368H60.5096V116.362H151.887Z" fill="#3F3D56"/>
<path d="M35.02 188.751H37.9323L39.3177 177.517L35.0194 177.517L35.02 188.751Z" fill="#FFB8B8"/>
<path d="M42.5967 188.871C42.2585 188.529 41.8558 188.259 41.412 188.075C40.9678 187.893 40.4925 187.799 40.0125 187.799L38.2961 186.499L38.2052 186.534L35.0976 187.799H34.2766V191.573H43.6684V191.455C43.6698 190.975 43.5758 190.499 43.3918 190.055C43.2078 189.612 42.9375 189.209 42.5967 188.871Z" fill="#2F2E41"/>
<path d="M48.5505 188.751H51.4628L52.8483 177.517L48.55 177.517L48.5505 188.751Z" fill="#FFB8B8"/>
<path d="M56.1291 188.871C55.7905 188.529 55.3868 188.258 54.9418 188.075C54.4977 187.892 54.0222 187.799 53.5422 187.799L51.8286 186.499L51.7349 186.537L48.6273 187.799H47.8063L47.8091 191.573H57.1981V191.455C57.1994 190.975 57.1056 190.499 56.9221 190.056C56.7386 189.612 56.4691 189.21 56.1291 188.871Z" fill="#2F2E41"/>
<path d="M50.8785 127.275L27.996 127.872L28.3939 139.015C28.3939 139.015 27.996 142 28.7919 142.795C29.5878 143.591 29.9858 143.591 29.5878 144.984C29.1898 146.377 31.2924 148.652 31.0371 148.907C30.7817 149.163 30.1847 150.556 30.1847 150.556L32.1745 161.897C32.1745 161.897 33.5674 181.596 33.9653 181.994C34.3633 182.392 34.7612 181.994 34.3633 182.989C33.9653 183.984 33.5674 183.586 33.9653 183.984C34.3178 184.364 34.6499 184.763 34.9602 185.178H39.7709C39.7709 185.178 40.1337 183.188 40.1337 182.989C40.1337 182.79 40.5316 181.596 40.5316 181.397C40.5316 181.198 40.1799 180.847 40.1799 180.847C40.0583 180.442 39.9762 180.027 39.9347 179.606C39.9347 179.209 38.7408 163.887 38.7408 163.887L41.1286 143.989L46.8989 163.489C46.8989 163.489 46.8989 180.601 47.2969 180.999C47.6948 181.397 47.6948 181.198 47.4959 181.994C47.2969 182.79 46.501 182.591 47.0979 183.188C47.6948 183.785 47.8938 182.79 47.6949 183.785L47.4959 184.78L53.4652 184.865C53.4652 184.865 54.2611 183.188 53.8632 182.591C53.4652 181.994 53.4891 182.157 53.9746 181.18C54.4601 180.203 54.6591 180.004 54.4601 179.805C54.2611 179.606 54.2611 178.548 54.2611 178.548L53.2662 159.51C53.2662 159.51 53.0673 139.413 53.0673 138.816C53.0523 138.509 53.1089 138.202 53.2326 137.921V137.11L52.4703 134.239L50.8785 127.275Z" fill="#2F2E41"/>
<path d="M76.7744 83.8774C76.6645 84.1831 76.4888 84.4609 76.2599 84.6914C76.0309 84.9218 75.7542 85.0992 75.4493 85.2112C75.1444 85.3231 74.8186 85.3668 74.4949 85.3392C74.1713 85.3116 73.8576 85.2134 73.576 85.0515L63.6432 93.3729L63.1034 89.3054L72.8185 81.8683C73.1219 81.4133 73.5817 81.0854 74.1107 80.9467C74.6397 80.808 75.2012 80.8682 75.6889 81.1158C76.1765 81.3635 76.5563 81.7814 76.7564 82.2904C76.9565 82.7993 76.9629 83.364 76.7744 83.8774H76.7744Z" fill="#FFB8B8"/>
<path d="M32.9762 87.3118C36.3829 87.3118 39.1445 84.5502 39.1445 81.1435C39.1445 77.7368 36.3829 74.9752 32.9762 74.9752C29.5695 74.9752 26.8079 77.7368 26.8079 81.1435C26.8079 84.5502 29.5695 87.3118 32.9762 87.3118Z" fill="#FFB8B8"/>
<path d="M37.9768 75.0047C37.4026 73.636 34.9415 72.8233 31.0472 72.9457C27.1529 73.0681 26.471 77.7121 26.471 77.7121C24.326 79.7114 27.789 85.9534 28.3898 85.0928C28.9906 84.2322 29.9993 85.0457 29.9993 85.0457L29.038 79.6385C30.0532 80.0291 31.145 80.2913 32.0999 79.8363L30.5178 78.9903L34.4514 79.4798L32.8292 78.2318C32.8685 78.2188 32.9078 78.2054 32.9472 78.1921C33.5977 78.4726 34.2945 78.6308 35.0024 78.6587C35.8294 78.6526 36.7083 78.265 37.0549 77.514C37.1471 77.3078 37.197 77.0852 37.2017 76.8594C38.342 77.2297 38.9408 78.5656 38.9408 78.5656C38.7243 77.3527 38.4017 76.1612 37.9768 75.0047Z" fill="#2F2E41"/>
<path d="M37.9137 87.5877C36.5362 87.5877 35.6491 87.7778 33.5057 88.1387C29.5496 88.8054 31.9189 92.5645 31.9189 92.5645C31.9189 92.5645 32.0979 92.4736 31.6131 92.5645C31.1282 92.6554 29.4752 94.0852 29.4752 94.0852L26.5191 96.7107C22.0643 100.207 23.0616 105.662 23.0616 105.662L29.5578 112.199L26.7119 125.316C26.7119 125.316 27.9214 127.264 27.296 128.137C26.6706 129.01 32.8059 128.759 32.8059 128.759C37.0404 130.647 51.9586 129.052 51.9586 129.052C51.752 128.512 49.7546 124.327 49.7546 124.327C50.6224 122.828 49.7959 120.663 49.7959 120.663C49.7959 120.663 48.9336 110.42 48.3826 109.003C47.8316 107.587 49.7932 99.9148 51.0825 99.9974C52.3718 100.08 60.7002 95.8319 60.7002 95.8319C60.7002 95.8319 60.4908 95.4985 63.2403 94.3745C64.8195 93.754 66.2674 92.8408 67.5077 91.6829L68.6373 89.4266C68.0945 89.6359 66.2625 86.1812 66.2625 86.1812L65.4635 86.4857L65.0007 86.352C65.0007 86.352 61.3889 87.3796 60.6506 88.129C59.9122 88.8783 59.6643 88.6689 58.9976 88.837C58.3309 89.005 58.2482 89.4734 58.0388 89.421C57.8295 89.3687 57.4575 90.0023 57.1655 89.9197C56.8735 89.837 56.2481 90.1704 55.8321 90.2531C55.4161 90.3357 52.46 91.5865 52.46 91.5865C50.6307 90.6608 45.6717 91.0355 45.6717 91.0355C45.6717 91.0355 44.049 90.0795 43.5889 91.0355C43.4652 91.3071 43.2664 91.5377 43.016 91.7002C42.7657 91.8627 42.4741 91.9504 42.1756 91.9529L40.1976 91.1071C40.0826 91.5267 37.925 87.1528 37.9137 87.5877Z" fill="#3F3D56"/>
<path d="M1.45041e-06 191.672C-0.000126953 191.715 0.00827143 191.758 0.0247028 191.798C0.0411342 191.838 0.0652759 191.874 0.0957466 191.904C0.126217 191.935 0.162409 191.959 0.202245 191.975C0.242081 191.992 0.284772 192 0.327862 192H78.3738C78.4608 192 78.5442 191.965 78.6056 191.904C78.6671 191.842 78.7017 191.759 78.7017 191.672C78.7017 191.585 78.6671 191.502 78.6056 191.44C78.5442 191.379 78.4608 191.344 78.3738 191.344H0.327862C0.284772 191.344 0.24208 191.353 0.202245 191.369C0.16241 191.385 0.126217 191.41 0.0957466 191.44C0.0652762 191.47 0.0411347 191.507 0.0247028 191.547C0.00827091 191.586 -0.00012549 191.629 1.45041e-06 191.672Z" fill="#CCCCCC"/>
<path d="M81.4082 83.4015H79.7552V83.9525H81.4082V83.4015Z" fill="#3F3D56"/>
<path d="M84.7452 83.4016V83.9526H88.0842V83.4016H84.7452ZM91.4233 83.4016V83.9526H94.7595V83.4016H91.4233ZM98.0986 83.4016V83.9526H101.438V83.4016H98.0986ZM104.774 83.4016V83.9526H108.113V83.4016H104.774ZM111.452 83.4016V83.9526H114.788V83.4016H111.452ZM118.127 83.4016V83.9526H121.466V83.4016H118.127ZM124.803 83.4016V83.9526H128.142V83.4016H124.803ZM131.481 83.4016V83.9526H134.817V83.4016H131.481ZM138.156 83.4016V83.9526H141.495V83.4016H138.156ZM144.831 83.4016V83.9526H148.17V83.4016H144.831ZM151.507 83.4016V83.9526H154.846V83.4016H151.507ZM158.185 83.4016V83.9526H161.521V83.4016H158.185ZM164.86 83.4016V83.9526H165.108C165.116 83.8948 165.125 83.8397 165.133 83.7846C165.152 83.6579 165.169 83.5311 165.188 83.4016H164.86Z" fill="#3F3D56"/>
<path d="M110.06 72.3816H108.407V72.9326H110.06V72.3816Z" fill="#3F3D56"/>
<path d="M113.397 72.3817V72.9327H116.736V72.3817H113.397ZM120.075 72.3817V72.9327H123.411V72.3817H120.075ZM126.75 72.3817V72.9327H130.089V72.3817H126.75ZM133.426 72.3817V72.9327H136.765V72.3817H133.426ZM140.104 72.3817V72.9327H143.44V72.3817H140.104ZM146.779 72.3817V72.9327H150.118V72.3817H146.779ZM153.454 72.3817V72.9327H156.793V72.3817H153.454ZM160.133 72.3817V72.9327H163.469V72.3817H160.133Z" fill="#3F3D56"/>
<path d="M140.64 80.6465H138.987V81.1975H140.64V80.6465Z" fill="#3F3D56"/>
<path d="M143.977 80.6467V81.1977H147.316V80.6467H143.977ZM150.655 80.6467V81.1977H153.992V80.6467H150.655ZM157.331 80.6467V81.1977H160.67V80.6467H157.331ZM164.006 80.6467V81.1977H165.458C165.469 81.0737 165.483 80.9497 165.496 80.8257C165.502 80.7679 165.507 80.7073 165.513 80.6467H164.006Z" fill="#3F3D56"/>
<path d="M42.1807 138.11V120.365C42.1811 120.006 42.3239 119.662 42.5779 119.408C42.8318 119.154 43.1762 119.011 43.5353 119.01H56.9365C57.2957 119.011 57.64 119.154 57.8939 119.408C58.1479 119.662 58.2907 120.006 58.2912 120.365V138.11C58.2907 138.469 58.1479 138.813 57.8939 139.067C57.64 139.321 57.2957 139.464 56.9365 139.464H43.5353C43.1762 139.464 42.8318 139.321 42.5779 139.067C42.3239 138.813 42.1811 138.469 42.1807 138.11Z" fill="#98CCEC"/>
<path d="M43.2086 132.75V121.342C43.209 121.006 43.3428 120.683 43.5806 120.446C43.8185 120.208 44.1409 120.074 44.4773 120.074H55.9945C56.3308 120.074 56.6533 120.208 56.8912 120.446C57.129 120.683 57.2628 121.006 57.2632 121.342V137.133C57.2628 137.469 57.129 137.791 56.8912 138.029C56.6533 138.267 56.3308 138.401 55.9945 138.401H48.8598C47.3616 138.4 45.9252 137.804 44.8657 136.744C43.8063 135.685 43.2103 134.248 43.2086 132.75Z" fill="white"/>
<path d="M45.0734 124.525C45.0737 124.197 45.2045 123.881 45.4369 123.649C45.6693 123.417 45.9844 123.286 46.3131 123.286H54.3026C54.6314 123.286 54.9467 123.416 55.1792 123.649C55.4117 123.881 55.5423 124.197 55.5423 124.525C55.5423 124.854 55.4117 125.169 55.1792 125.402C54.9467 125.634 54.6314 125.765 54.3026 125.765H46.3131C45.9844 125.765 45.6693 125.634 45.4369 125.402C45.2045 125.169 45.0737 124.854 45.0734 124.525Z" fill="#98CCEC"/>
<path d="M45.0734 128.382C45.0737 128.054 45.2045 127.738 45.4369 127.506C45.6693 127.274 45.9844 127.143 46.3131 127.143H54.3026C54.6314 127.143 54.9467 127.273 55.1792 127.506C55.4117 127.738 55.5423 128.053 55.5423 128.382C55.5423 128.711 55.4117 129.026 55.1792 129.259C54.9467 129.491 54.6314 129.622 54.3026 129.622H46.3131C45.9844 129.622 45.6693 129.491 45.4369 129.259C45.2045 129.026 45.0737 128.711 45.0734 128.382Z" fill="#98CCEC"/>
<path d="M45.0734 132.239C45.0737 131.911 45.2045 131.595 45.4369 131.363C45.6693 131.131 45.9844 131 46.3131 131H54.3026C54.6314 131 54.9467 131.13 55.1792 131.363C55.4117 131.595 55.5423 131.91 55.5423 132.239C55.5423 132.568 55.4117 132.883 55.1792 133.116C54.9467 133.348 54.6314 133.479 54.3026 133.479H46.3131C45.9844 133.479 45.6693 133.348 45.4369 133.115C45.2045 132.883 45.0737 132.568 45.0734 132.239Z" fill="#98CCEC"/>
<path d="M42.4972 131.911C42.1959 131.917 41.897 131.856 41.6216 131.734C41.3462 131.611 41.101 131.43 40.9032 131.202C40.7055 130.975 40.56 130.707 40.4771 130.417C40.3941 130.127 40.3757 129.823 40.4232 129.525L28.9818 123.261L32.3304 121.45L42.9331 127.818C43.4278 127.93 43.864 128.221 44.1589 128.634C44.4538 129.047 44.587 129.553 44.5333 130.058C44.4796 130.563 44.2426 131.03 43.8674 131.371C43.4921 131.713 43.0046 131.905 42.4972 131.911Z" fill="#FFB8B8"/>
<path d="M35.8442 127.28L31.7869 126.56L30.3342 125.352L29.3572 124.854L25.9898 122.491L25.9798 122.461L20.6292 106.645C20.3835 105.346 20.6437 104.002 21.3563 102.889C22.069 101.775 23.1803 100.977 24.4627 100.656C25.1718 100.48 25.9102 100.455 26.6294 100.585C27.3486 100.715 28.0322 100.995 28.6351 101.408C29.2381 101.82 29.7469 102.356 30.1278 102.98C30.5088 103.603 30.7534 104.301 30.8455 105.026L32.5675 118.581L35.4218 121.528L36.6707 121.77L36.9581 123.115L38.0482 124.801L35.8442 127.28Z" fill="#3F3D56"/>
</g>
<defs>
<clipPath id="clip0_508_13082">
<rect width="165.879" height="192" fill="white"/>
</clipPath>
</defs>
</svg>
