<svg width="262" height="192" viewBox="0 0 262 192" fill="none" xmlns="http://www.w3.org/2000/svg">
<path d="M42.993 137.63H23.5472C23.0206 137.63 22.5158 137.42 22.1435 137.048C21.7711 136.676 21.5616 136.171 21.561 135.644V71.5716C21.5616 71.045 21.7711 70.5402 22.1435 70.1679C22.5158 69.7956 23.0206 69.5862 23.5472 69.5856H42.993C43.5196 69.5862 44.0244 69.7956 44.3968 70.1679C44.7691 70.5402 44.9786 71.045 44.9792 71.5716V135.644C44.9786 136.171 44.7691 136.676 44.3968 137.048C44.0244 137.42 43.5196 137.63 42.993 137.63Z" fill="#3199D8"/>
<path d="M78.4549 137.63H59.0091C58.4825 137.63 57.9777 137.42 57.6053 137.048C57.233 136.676 57.0235 136.171 57.0229 135.644V46.1461C57.0235 45.6195 57.233 45.1147 57.6053 44.7424C57.9777 44.3701 58.4825 44.1607 59.0091 44.1601H78.4549C78.9815 44.1607 79.4863 44.3701 79.8587 44.7424C80.231 45.1147 80.4405 45.6195 80.4411 46.1461V135.644C80.4405 136.171 80.231 136.676 79.8587 137.048C79.4863 137.42 78.9815 137.63 78.4549 137.63Z" fill="#3199D8"/>
<path d="M113.917 137.63H94.4709C93.9444 137.63 93.4395 137.42 93.0672 137.048C92.6948 136.676 92.4854 136.171 92.4847 135.644V71.5716C92.4854 71.045 92.6948 70.5402 93.0672 70.1679C93.4395 69.7956 93.9444 69.5862 94.4709 69.5856H113.917C114.443 69.5862 114.948 69.7956 115.321 70.1679C115.693 70.5402 115.902 71.045 115.903 71.5716V135.644C115.902 136.171 115.693 136.676 115.321 137.048C114.948 137.42 114.443 137.63 113.917 137.63Z" fill="#3199D8"/>
<path d="M149.379 137.63H129.933C129.418 137.641 128.92 137.448 128.548 137.093C128.176 136.737 127.959 136.249 127.947 135.734V36.0197C127.959 35.5052 128.176 35.0167 128.548 34.6613C128.92 34.3059 129.418 34.1126 129.933 34.1237H149.379C149.893 34.1126 150.391 34.3059 150.764 34.6613C151.136 35.0167 151.352 35.5052 151.365 36.0197V135.734C151.352 136.249 151.136 136.737 150.764 137.093C150.391 137.448 149.893 137.641 149.379 137.63Z" fill="#3199D8"/>
<path d="M184.841 137.63H165.395C164.868 137.63 164.363 137.42 163.991 137.048C163.619 136.676 163.409 136.171 163.409 135.644V18.0442C163.409 17.5177 163.619 17.0129 163.991 16.6405C164.363 16.2682 164.868 16.0588 165.395 16.0582H184.84C185.367 16.0588 185.872 16.2682 186.244 16.6405C186.617 17.0129 186.826 17.5177 186.827 18.0442V135.644C186.826 136.171 186.617 136.676 186.244 137.048C185.872 137.42 185.367 137.63 184.841 137.63Z" fill="#3199D8"/>
<path d="M33.2701 61.5564C35.4873 61.5564 37.2847 59.7591 37.2847 57.5419C37.2847 55.3247 35.4873 53.5273 33.2701 53.5273C31.0529 53.5273 29.2556 55.3247 29.2556 57.5419C29.2556 59.7591 31.0529 61.5564 33.2701 61.5564Z" fill="#3F3D56"/>
<path d="M68.732 35.4619C70.9492 35.4619 72.7465 33.6645 72.7465 31.4473C72.7465 29.2301 70.9492 27.4328 68.732 27.4328C66.5148 27.4328 64.7174 29.2301 64.7174 31.4473C64.7174 33.6645 66.5148 35.4619 68.732 35.4619Z" fill="#3F3D56"/>
<path d="M104.194 61.5564C106.411 61.5564 108.208 59.7591 108.208 57.5419C108.208 55.3247 106.411 53.5273 104.194 53.5273C101.977 53.5273 100.179 55.3247 100.179 57.5419C100.179 59.7591 101.977 61.5564 104.194 61.5564Z" fill="#3F3D56"/>
<path d="M139.656 22.7491C141.873 22.7491 143.67 20.9518 143.67 18.7346C143.67 16.5174 141.873 14.72 139.656 14.72C137.439 14.72 135.641 16.5174 135.641 18.7346C135.641 20.9518 137.439 22.7491 139.656 22.7491Z" fill="#3F3D56"/>
<path d="M175.118 8.02911C177.335 8.02911 179.132 6.23173 179.132 4.01455C179.132 1.79738 177.335 0 175.118 0C172.9 0 171.103 1.79738 171.103 4.01455C171.103 6.23173 172.9 8.02911 175.118 8.02911Z" fill="#3F3D56"/>
<path d="M207.627 138.376H0.313164C0.230107 138.376 0.150453 138.343 0.0917232 138.284C0.0329937 138.225 0 138.146 0 138.063C0 137.98 0.0329937 137.9 0.0917232 137.841C0.150453 137.783 0.230107 137.75 0.313164 137.75H207.627C207.71 137.75 207.79 137.783 207.849 137.841C207.908 137.9 207.941 137.98 207.941 138.063C207.941 138.146 207.908 138.225 207.849 138.284C207.79 138.343 207.71 138.376 207.627 138.376Z" fill="#CBCBCB"/>
<path d="M259.299 191.927H157.834C157.751 191.927 157.672 191.894 157.613 191.835C157.554 191.776 157.521 191.697 157.521 191.614C157.521 191.531 157.554 191.451 157.613 191.392C157.672 191.333 157.751 191.3 157.834 191.3H259.299C259.382 191.3 259.462 191.333 259.521 191.392C259.58 191.451 259.613 191.531 259.613 191.614C259.613 191.697 259.58 191.776 259.521 191.835C259.462 191.894 259.382 191.927 259.299 191.927Z" fill="#CBCBCB"/>
<path d="M194.141 133.286C194.399 133.03 194.597 132.721 194.722 132.38C194.847 132.039 194.896 131.675 194.865 131.313C194.834 130.951 194.724 130.601 194.543 130.286C194.362 129.971 194.114 129.7 193.817 129.492L195.048 123.952L191.864 122.383L190.236 130.23C189.918 130.753 189.804 131.373 189.913 131.975C190.023 132.576 190.35 133.116 190.831 133.493C191.313 133.869 191.915 134.056 192.525 134.018C193.135 133.98 193.71 133.719 194.141 133.286Z" fill="#FFB7B7"/>
<path d="M228.96 133.407C229.197 133.132 229.37 132.808 229.469 132.459C229.567 132.109 229.588 131.743 229.529 131.384C229.47 131.026 229.333 130.685 229.129 130.385C228.924 130.086 228.656 129.834 228.343 129.649L229.142 124.031L225.846 122.713L224.83 130.663C224.554 131.208 224.487 131.836 224.643 132.427C224.799 133.018 225.167 133.531 225.676 133.87C226.185 134.208 226.8 134.348 227.406 134.262C228.011 134.177 228.564 133.873 228.96 133.407L228.96 133.407Z" fill="#FFB7B7"/>
<path d="M204.139 188.549L200.893 188.549L199.348 176.025L204.14 176.025L204.139 188.549Z" fill="#FFB7B7"/>
<path d="M204.968 191.696L194.498 191.696V191.563C194.498 190.483 194.928 189.446 195.692 188.682C196.456 187.918 197.493 187.489 198.573 187.489H198.573L204.968 187.489L204.968 191.696Z" fill="#2F2E41"/>
<path d="M214.998 188.549L211.751 188.549L210.206 176.025L214.998 176.025L214.998 188.549Z" fill="#FFB7B7"/>
<path d="M215.826 191.696L205.357 191.696V191.563C205.357 190.483 205.786 189.446 206.55 188.682C207.314 187.918 208.351 187.489 209.432 187.489H209.432L215.826 187.489L215.826 191.696Z" fill="#2F2E41"/>
<path d="M221.535 83.1857L225.036 81.9223C225.036 81.9223 226.522 82.2378 226.522 86.2677C226.522 90.2976 230.469 127.882 230.469 127.882L223.562 129.7L219.658 94.0423L221.535 83.1857Z" fill="#2F2E41"/>
<path d="M198.14 83.1857L194.639 81.9223C194.639 81.9223 193.153 82.2378 193.153 86.2677C193.153 90.2976 189.206 127.882 189.206 127.882L196.113 129.7L200.017 94.0423L198.14 83.1857Z" fill="#2F2E41"/>
<path d="M198.185 126.051L197.228 154.283L199.346 185.513L204.806 185.639L205.6 156.507L210.102 141.941L209.648 184.873L215.83 184.799L219.658 155.262C219.658 155.262 224.714 130.818 221.91 126.051L208.998 121.757L198.185 126.051Z" fill="#2F2E41"/>
<path d="M198.29 122.649L197.978 129.44C197.978 129.44 202.335 131.608 209.993 130.287C217.65 128.967 222.74 129.837 222.74 129.837L222.152 121.18L198.29 122.649Z" fill="#E5E5E5"/>
<path d="M194.5 82.0226L204.569 77.6103L205.169 75.2993L214.965 75.583L215.388 77.9439L225.036 81.9223L220.786 96.7027L221.221 107.1L226.522 126.051C226.522 126.051 222.051 129.848 211.31 128.214L209.456 124.479L208.322 128.429C208.322 128.429 198.903 131.894 196.293 127.383L198.185 94.7999L194.5 82.0226Z" fill="#2F2E41"/>
<path d="M209.978 73.1282C213.571 73.1282 216.483 70.216 216.483 66.6235C216.483 63.0311 213.571 60.1189 209.978 60.1189C206.386 60.1189 203.474 63.0311 203.474 66.6235C203.474 70.216 206.386 73.1282 209.978 73.1282Z" fill="#FFB7B7"/>
<path d="M217.707 64.103C217.591 63.5737 217.367 63.0738 217.05 62.6344C216.923 61.4191 216.518 60.2495 215.865 59.2167C215.609 58.7327 215.246 58.3137 214.804 57.9917C214.297 57.6998 213.719 57.5556 213.134 57.5754C213.028 57.5737 212.837 57.6058 212.666 57.6136C212.556 57.5796 212.445 57.5493 212.334 57.5207C212.269 57.3764 212.14 56.9559 212.105 56.9844L211.62 57.3694C211.415 57.3338 211.209 57.3061 211.003 57.2841C210.927 57.0695 210.852 56.8548 210.777 56.6402C210.655 56.8322 210.548 57.0333 210.457 57.2418C210.251 57.2317 210.045 57.2282 209.839 57.2312L209.427 56.8356C209.403 56.9459 209.347 57.0468 209.266 57.1258C209.186 57.2049 209.084 57.2587 208.973 57.2806C208.783 57.3001 208.595 57.3255 208.407 57.3557C208.391 57.3556 208.376 57.3557 208.361 57.3553C207.347 57.3301 206.255 57.2846 205.407 57.8414C205.01 58.1138 204.687 58.4805 204.467 58.9085C204.363 58.979 204.259 59.0491 204.158 59.1239C203.818 59.3559 203.523 59.6482 203.288 59.9863C203.117 60.278 202.988 60.5919 202.903 60.9191C202.58 61.9038 202.43 62.9374 202.46 63.9736C202.495 65.0168 202.889 66.0161 203.575 66.8027C204.01 67.2701 204.562 67.6152 204.998 68.082C205.895 69.0431 206.063 70.3836 206.83 71.4005C207.641 72.4762 209.122 73.184 210.423 73.3869C211.205 73.5047 212.002 73.4669 212.769 73.2755C213.536 73.0842 214.258 72.7431 214.893 72.2719C215.198 72.0597 215.457 71.7883 215.654 71.4739C216.106 70.6931 215.914 69.7119 216.082 68.8257C216.396 67.1648 217.981 65.771 217.707 64.103Z" fill="#2F2E41"/>
<path d="M33.056 57.7931L32.6821 57.2908L68.7322 30.4517L104.079 56.817L139.91 17.9145L139.974 17.8882L174.748 3.53625L174.987 4.11529L140.277 18.4406L104.157 57.6566L68.7319 31.2328L33.056 57.7931Z" fill="#3F3D56"/>
</svg>
