<svg width="16" height="17" viewBox="0 0 16 17" fill="none" xmlns="http://www.w3.org/2000/svg">
<path d="M11.9268 4.48065V14.6673H3.98016C2.7935 14.6673 1.8335 13.7073 1.8335 12.5206V4.48065C1.8335 3.29399 2.7935 2.33398 3.98016 2.33398H9.78016C10.9602 2.33398 11.9268 3.29399 11.9268 4.48065Z" stroke="#3199D8" stroke-linecap="round" stroke-linejoin="round"/>
<path d="M14.1668 13.2546V9.83458C14.1668 8.70125 13.1601 7.78125 11.9268 7.78125" stroke="#3199D8" stroke-linecap="round" stroke-linejoin="round"/>
<path d="M9.47339 14.668H12.7867" stroke="#3199D8" stroke-linecap="round" stroke-linejoin="round"/>
<path d="M11.9268 11.7617V13.6417C11.9268 14.2084 12.4268 14.6684 13.0468 14.6684C13.6668 14.6684 14.1668 14.2084 14.1668 13.6417V11.7617" stroke="#3199D8" stroke-linecap="round" stroke-linejoin="round"/>
<path d="M4.56689 5.08008H9.36023" stroke="#3199D8" stroke-linecap="round" stroke-linejoin="round"/>
<path d="M4.56689 8.50098H9.36023" stroke="#3199D8" stroke-linecap="round" stroke-linejoin="round"/>
<path d="M4.58667 11.9141H5.95334" stroke="#3199D8" stroke-linecap="round" stroke-linejoin="round"/>
</svg>
