<svg width="99" height="80" viewBox="0 0 99 80" fill="none" xmlns="http://www.w3.org/2000/svg">
<path d="M94.2924 7.64316e-05H64.8204C63.3982 6.13797e-06 62.0183 0.488281 60.9075 1.38463C59.7967 2.28099 59.0211 3.53207 58.7083 4.93223L43.817 71.5927C43.6545 72.3198 43.6517 73.0739 43.8086 73.8022C43.9655 74.5306 44.2784 75.2154 44.7253 75.8088C45.1722 76.4022 45.7423 76.8898 46.3957 77.2373C47.049 77.5848 47.7698 77.7839 48.5075 77.8205L78.805 79.327C80.4273 79.4077 82.0233 78.8899 83.2952 77.8702C84.567 76.8506 85.4278 75.3988 85.7169 73.7857L94.1647 26.6562L94.7932 26.8374L96.41 17.9045L95.7632 17.7414L98.1212 4.58574C98.2222 4.02224 98.1988 3.44319 98.0527 2.88985C97.9066 2.33652 97.6412 1.82254 97.2757 1.38456C96.9101 0.946578 96.4533 0.59538 95.9378 0.356005C95.4224 0.116629 94.8609 -0.00502823 94.2935 -0.000294203L94.2924 7.64316e-05Z" fill="#3F3D56"/>
<path d="M68.6999 1.43707H65.26C64.272 1.43708 63.3138 1.77808 62.5443 2.40346C61.7748 3.02884 61.2404 3.90098 61.0298 4.87511L46.7357 70.9916C46.6533 71.3723 46.6534 71.7664 46.7358 72.1471C46.8183 72.5277 46.9812 72.8859 47.2134 73.1972C47.4456 73.5085 47.7417 73.7655 48.0814 73.9507C48.421 74.1359 48.7963 74.245 49.1816 74.2703L79.3807 76.2679C80.2326 76.3243 81.0754 76.0621 81.748 75.5314C82.4206 75.0007 82.8761 74.2386 83.0274 73.3906L95.2246 5.05275C95.3036 4.61044 95.2853 4.15604 95.1713 3.72161C95.0572 3.28719 94.85 2.88332 94.5644 2.53851C94.2788 2.1937 93.9217 1.91635 93.5182 1.72604C93.1148 1.53573 92.6749 1.43708 92.2296 1.43707H88.9662C88.6503 1.43706 88.3433 1.54214 88.0925 1.73604C87.8418 1.92994 87.6614 2.20185 87.5793 2.50966C87.5068 2.7815 87.3474 3.02162 87.126 3.19283C86.9046 3.36403 86.6334 3.45676 86.3544 3.45666H70.8614C70.3153 3.45664 69.7893 3.24864 69.3886 2.87422C68.9879 2.49981 68.7419 1.98656 68.6999 1.43707Z" fill="white"/>
<path d="M85.3941 47.6581C85.4528 47.6602 85.5103 47.6409 85.5561 47.6037C85.6018 47.5665 85.6329 47.514 85.6435 47.4557L92.3218 10.2585C92.3281 10.2231 92.3269 10.1868 92.318 10.152C92.3092 10.1172 92.2931 10.0847 92.2707 10.0567C92.2485 10.029 92.2205 10.0066 92.1888 9.99099C92.157 9.97542 92.1223 9.9671 92.087 9.96662L61.7032 9.60443H61.7004C61.6452 9.6049 61.5918 9.62426 61.549 9.65934C61.5062 9.69442 61.4764 9.74314 61.4646 9.79752L53.5916 45.7874C53.584 45.8225 53.5839 45.8589 53.5914 45.8941C53.5989 45.9292 53.6139 45.9623 53.6352 45.9911C53.6564 46.0197 53.6836 46.0432 53.7147 46.0599C53.7459 46.0767 53.7804 46.0863 53.8157 46.0881L85.3941 47.6581Z" fill="#E6E6E6"/>
<path d="M59.027 50.0632C58.9994 50.0632 58.9726 50.0727 58.951 50.09C58.9293 50.1073 58.9141 50.1316 58.9079 50.1587L58.6233 51.3894C58.6193 51.4068 58.6191 51.4249 58.6226 51.4424C58.6262 51.4599 58.6334 51.4764 58.6439 51.4908C58.6544 51.5051 58.6678 51.5171 58.6833 51.5257C58.6988 51.5344 58.7159 51.5395 58.7336 51.5408L74.8074 52.6938C74.8372 52.6957 74.8667 52.6866 74.8904 52.6683C74.9142 52.65 74.9305 52.6236 74.9364 52.594L75.21 51.1701C75.2133 51.1528 75.213 51.1351 75.2089 51.1179C75.2049 51.1008 75.1972 51.0848 75.1865 51.0709C75.1758 51.057 75.1623 51.0455 75.1469 51.0373C75.1315 51.0291 75.1145 51.0243 75.0971 51.0233L59.0345 50.0634L59.027 50.0632Z" fill="#E6E6E6"/>
<path d="M78.5558 57.2651C78.5848 57.2675 78.6137 57.2593 78.6373 57.2421C78.6608 57.225 78.6776 57.1999 78.6846 57.1714L79.0329 55.7446C79.0372 55.7271 79.0376 55.7088 79.0342 55.6912C79.0307 55.6735 79.0235 55.6568 79.013 55.6422C79.0025 55.6277 78.989 55.6156 78.9734 55.6068C78.9578 55.5981 78.9405 55.5929 78.9227 55.5916L58.3953 54.1428C58.3675 54.1405 58.3397 54.1481 58.3168 54.1642C58.2938 54.1802 58.277 54.2038 58.2693 54.2309L57.9074 55.4639C57.9022 55.4816 57.901 55.5001 57.9038 55.5183C57.9067 55.5364 57.9135 55.5537 57.9238 55.5689C57.9341 55.584 57.9476 55.5967 57.9634 55.6059C57.9792 55.6151 57.9968 55.6207 58.0149 55.6222L78.5558 57.2651Z" fill="#E6E6E6"/>
<path d="M77.4535 61.8388C77.4825 61.8411 77.5114 61.833 77.535 61.8158C77.5586 61.7986 77.5753 61.7736 77.5823 61.7451L77.9306 60.3182C77.9349 60.3007 77.9353 60.2825 77.9319 60.2648C77.9285 60.2471 77.9212 60.2304 77.9107 60.2159C77.9002 60.2013 77.8867 60.1892 77.8711 60.1805C77.8555 60.1718 77.8382 60.1666 77.8204 60.1653L57.2931 58.7164C57.2652 58.7142 57.2374 58.7217 57.2145 58.7378C57.1915 58.7539 57.1747 58.7774 57.167 58.8046L56.8051 60.0376C56.7999 60.0552 56.7987 60.0738 56.8016 60.0919C56.8044 60.1101 56.8112 60.1274 56.8215 60.1425C56.8318 60.1577 56.8454 60.1703 56.8611 60.1796C56.8769 60.1888 56.8945 60.1943 56.9126 60.1958L77.4535 61.8388Z" fill="#E6E6E6"/>
<path d="M41.8631 77.9403C41.8631 78.9748 32.48 79.085 20.9315 79.8134C9.39334 80.5411 0 78.9748 0 77.9403C0 76.9058 9.43719 74.8244 20.9315 76.0672C32.48 77.316 41.8631 76.9058 41.8631 77.9403Z" fill="#E6E6E6"/>
<path d="M67.9993 69.6575C68.0286 69.6606 68.0579 69.6528 68.0819 69.6357C68.1058 69.6185 68.1228 69.5932 68.1296 69.5643L68.8662 66.5913C68.8705 66.5739 68.871 66.5558 68.8677 66.5382C68.8644 66.5206 68.8573 66.5039 68.847 66.4893C68.8367 66.4748 68.8234 66.4626 68.8079 66.4538C68.7925 66.4449 68.7753 66.4395 68.7576 66.438L56.1519 65.368C56.1224 65.366 56.0932 65.3745 56.0695 65.3922C56.0457 65.4098 56.0289 65.4354 56.022 65.4643L55.3938 68.3177C55.39 68.3348 55.3899 68.3526 55.3934 68.3697C55.397 68.3869 55.4041 68.4031 55.4143 68.4173C55.4246 68.4315 55.4377 68.4433 55.4528 68.452C55.4679 68.4607 55.4846 68.466 55.502 68.4676L67.9993 69.6575Z" fill="#E6E6E6"/>
<path d="M17.1001 57.5426C17.2589 57.4329 17.3918 57.2893 17.4896 57.1221C17.5874 56.9548 17.6477 56.768 17.6661 56.5747C17.6846 56.3814 17.6609 56.1863 17.5965 56.0033C17.5322 55.8203 17.4289 55.6537 17.2939 55.5154L17.8043 44.0172L15.2058 44.3115L15.3568 55.5584C15.1413 55.8025 15.0221 56.118 15.0217 56.445C15.0214 56.7719 15.1399 57.0876 15.3549 57.3323C15.5699 57.5769 15.8664 57.7333 16.1881 57.772C16.5098 57.8107 16.8344 57.7289 17.1003 57.5421L17.1001 57.5426Z" fill="#A0616A"/>
<path d="M21.8407 77.0066L23.3197 77.269L24.7815 71.6367L22.8436 71.2494L21.8407 77.0066Z" fill="#A0616A"/>
<path d="M25.9311 79.1609L21.2828 78.3362L21.5985 76.5239L24.4509 77.0299C24.9272 77.1145 25.3507 77.3864 25.6283 77.7861C25.9059 78.1858 26.0148 78.6803 25.931 79.161L25.9311 79.1609Z" fill="#2F2E41"/>
<path d="M17.7814 77.7537H19.2831L19.9974 71.9083H17.7811L17.7814 77.7537Z" fill="#A0616A"/>
<path d="M22.1785 79.1611L17.459 79.1614L17.4589 77.3211L20.3549 77.321C20.8385 77.3209 21.3023 77.5148 21.6443 77.8599C21.9863 78.205 22.1784 78.673 22.1785 79.1611Z" fill="#2F2E41"/>
<path d="M24.0464 75.6584C24.023 75.6584 23.9996 75.657 23.9763 75.6542L22.2089 75.5075C22.1284 75.4979 22.0507 75.472 21.9805 75.4312C21.9102 75.3904 21.849 75.3356 21.8003 75.2702C21.7517 75.2048 21.7168 75.1301 21.6977 75.0506C21.6786 74.9711 21.6757 74.8886 21.6891 74.808L23.4438 66.0709L22.3414 60.2025C22.3324 60.1548 22.3066 60.112 22.2688 60.082C22.231 60.052 22.1838 60.0368 22.1357 60.0392C22.0877 60.0416 22.0421 60.0615 22.0075 60.0951C21.9728 60.1288 21.9514 60.1739 21.9471 60.2223L20.3228 75.1333C20.3077 75.2904 20.2326 75.4354 20.1136 75.5377C19.9945 75.64 19.8407 75.6917 19.6847 75.6818L18.0195 75.6192C17.8735 75.6088 17.7365 75.5448 17.6341 75.4393C17.5318 75.3339 17.4712 75.1942 17.4639 75.0468L17.5969 57.028L26.2298 55.939L26.833 65.3386L26.8305 65.3486L24.6269 75.1975C24.5951 75.3288 24.5207 75.4455 24.4155 75.5291C24.3103 75.6126 24.1803 75.6582 24.0464 75.6584Z" fill="#2F2E41"/>
<path d="M20.4438 36.5666C22.1053 36.5666 23.4522 35.2073 23.4522 33.5306C23.4522 31.8538 22.1053 30.4945 20.4438 30.4945C18.7823 30.4945 17.4354 31.8538 17.4354 33.5306C17.4354 35.2073 18.7823 36.5666 20.4438 36.5666Z" fill="#A0616A"/>
<path d="M23.2784 58.3992C22.8079 58.402 22.3464 58.2688 21.9486 58.0153C20.491 57.0961 18.8361 57.4614 17.9792 57.761C17.8941 57.7911 17.8034 57.8013 17.7139 57.791C17.6244 57.7807 17.5383 57.7502 17.4622 57.7016C17.3869 57.6538 17.3233 57.5896 17.2761 57.5135C17.2289 57.4375 17.1994 57.3517 17.1897 57.2625L15.6316 43.217C15.3705 40.8636 16.7751 38.6511 18.9716 37.956C19.0541 37.9299 19.138 37.9052 19.2233 37.8818C19.9068 37.6948 20.6226 37.6613 21.3203 37.7835C22.0181 37.9057 22.6808 38.1808 23.2619 38.5893C23.8538 39.0023 24.3488 39.5412 24.7121 40.1681C25.0754 40.7949 25.2981 41.4946 25.3646 42.2177L26.6765 56.3574C26.6855 56.4489 26.6732 56.5413 26.6408 56.6273C26.6083 56.7132 26.5565 56.7904 26.4895 56.8527C26.0294 57.2819 24.6946 58.3991 23.2784 58.3992Z" fill="#3199D8"/>
<path d="M18.5331 46.229L15.0178 45.8388C14.9177 45.8277 14.8212 45.795 14.7349 45.7429C14.6485 45.6908 14.5743 45.6205 14.5173 45.5368C14.4603 45.4531 14.4218 45.358 14.4045 45.2579C14.3872 45.1579 14.3914 45.0552 14.417 44.957L15.3119 41.5149C15.3382 41.2569 15.415 41.0067 15.5377 40.7788C15.6605 40.551 15.8267 40.3499 16.0269 40.1872C16.2271 40.0246 16.4572 39.9036 16.704 39.8313C16.9508 39.7589 17.2094 39.7367 17.4648 39.7658C17.7202 39.7949 17.9673 39.8747 18.1919 40.0008C18.4165 40.1269 18.6141 40.2966 18.7733 40.5002C18.9325 40.7038 19.0502 40.9372 19.1195 41.187C19.1888 41.4367 19.2083 41.6979 19.177 41.9553L19.3099 45.4999C19.3137 45.6014 19.2958 45.7026 19.2574 45.7964C19.219 45.8903 19.1609 45.9748 19.0873 46.044C19.0136 46.1132 18.926 46.1656 18.8305 46.1975C18.7349 46.2295 18.6332 46.2401 18.5331 46.229Z" fill="#3199D8"/>
<path d="M26.6621 57.0503C26.8065 56.922 26.9213 56.7633 26.9984 56.5855C27.0754 56.4076 27.1129 56.2148 27.1082 56.0207C27.1034 55.8266 27.0566 55.636 26.9709 55.4621C26.8853 55.2883 26.7629 55.1355 26.6124 55.0146L25.7461 43.5381L23.1997 44.1167L24.694 55.293C24.5093 55.5616 24.4286 55.8892 24.4672 56.2138C24.5059 56.5385 24.6613 56.8375 24.904 57.0542C25.1466 57.2709 25.4596 57.3901 25.7835 57.3894C26.1075 57.3887 26.42 57.268 26.6617 57.0503H26.6621Z" fill="#A0616A"/>
<path d="M22.2237 45.5075C22.15 45.4384 22.0919 45.354 22.0535 45.2601C22.0151 45.1663 21.9972 45.0651 22.001 44.9637L22.1339 41.4191C22.1052 41.1629 22.1269 40.9036 22.1975 40.6559C22.2681 40.4082 22.3864 40.177 22.5456 39.9754C22.7048 39.7739 22.9018 39.6059 23.1253 39.4812C23.3488 39.3565 23.5945 39.2774 23.8483 39.2485C24.1021 39.2196 24.359 39.2414 24.6044 39.3127C24.8499 39.384 25.079 39.5033 25.2787 39.664C25.4784 39.8247 25.6449 40.0235 25.7685 40.249C25.892 40.4746 25.9704 40.7225 25.9991 40.9786L26.8939 44.4207C26.9195 44.519 26.9238 44.6216 26.9065 44.7217C26.8891 44.8217 26.8507 44.9168 26.7937 45.0005C26.7366 45.0842 26.6624 45.1545 26.576 45.2066C26.4897 45.2588 26.3932 45.2915 26.2932 45.3026L22.7778 45.6927C22.6777 45.7038 22.5765 45.693 22.4809 45.661C22.3854 45.629 22.2973 45.5768 22.2237 45.5075Z" fill="#3199D8"/>
<path d="M20.2648 36.681C20.2112 36.681 20.1577 36.6747 20.1056 36.6623L20.0902 36.6586C17.4453 36.2507 16.8606 34.704 16.7324 34.0584C16.5996 33.3899 16.7508 32.7446 17.0925 32.494C16.9062 31.9006 16.9361 31.3739 17.1816 30.9288C17.6103 30.1525 18.5388 29.8904 18.6636 29.8578C19.4057 29.3054 20.2934 29.6741 20.455 29.7489C21.8904 29.213 22.4393 29.659 22.5382 29.7587C23.1798 29.875 23.5709 30.125 23.7008 30.5023C23.9446 31.2107 23.1735 32.092 23.1405 32.1292L23.1234 32.1485L21.9744 32.2037C21.8654 32.209 21.7587 32.2373 21.6612 32.2868C21.5638 32.3364 21.4777 32.4061 21.4086 32.4914C21.3395 32.5766 21.289 32.6756 21.2603 32.7819C21.2315 32.8881 21.2253 32.9993 21.2419 33.1082C21.2729 33.2486 21.3122 33.3871 21.3594 33.5229C21.5554 34.1417 21.7024 34.6704 21.513 34.8714C21.4701 34.9103 21.4171 34.9362 21.3603 34.9461C21.3034 34.9561 21.2449 34.9497 21.1915 34.9276C21.0118 34.8792 20.8899 34.8893 20.8292 34.9579C20.7349 35.0641 20.7637 35.3331 20.9103 35.7151C20.9563 35.8359 20.9687 35.9671 20.9461 36.0945C20.9235 36.2219 20.8668 36.3406 20.7822 36.4378C20.7184 36.5137 20.6391 36.5747 20.5498 36.6167C20.4604 36.6587 20.3631 36.6806 20.2645 36.681H20.2648Z" fill="#2F2E41"/>
</svg>
