<svg width="77" height="50" viewBox="0 0 77 50" fill="none" xmlns="http://www.w3.org/2000/svg">
    <g clip-path="url(#clip0_508_13280)">
        <path
            d="M30.5404 50C47.3511 50 60.9788 49.4491 60.9788 48.7695C60.9788 48.09 47.3511 47.5391 30.5404 47.5391C13.7298 47.5391 0.102051 48.09 0.102051 48.7695C0.102051 49.4491 13.7298 50 30.5404 50Z"
            fill="#E6E6E6" />
        <path
            d="M29.8469 10.2307C29.8318 10.2971 29.822 10.3646 29.8175 10.4325L24.5344 13.4818L23.2503 12.7422L21.8813 14.5352L24.6285 16.4942L30.6556 11.7369C30.9014 11.828 31.1691 11.8419 31.4231 11.777C31.677 11.7121 31.9052 11.5714 32.0773 11.3736C32.2494 11.1757 32.3572 10.9302 32.3864 10.6696C32.4156 10.409 32.3648 10.1456 32.2407 9.91462C32.1167 9.6836 31.9253 9.49583 31.692 9.37629C31.4587 9.25675 31.1945 9.2111 30.9347 9.24542C30.6748 9.27973 30.4316 9.39238 30.2372 9.56839C30.0429 9.74439 29.9068 9.97541 29.8469 10.2307Z"
            fill="#FFB8B8" />
        <path
            d="M17.815 12.1015L21.9748 15.0678L23.8353 12.734L19.7916 9.48776C19.6176 9.3481 19.417 9.24545 19.202 9.18609C18.987 9.12672 18.7621 9.1119 18.5412 9.14253C18.3202 9.17316 18.1079 9.2486 17.9171 9.36422C17.7263 9.47984 17.5611 9.63321 17.4317 9.81494C17.1795 10.169 17.0781 10.6089 17.15 11.0377C17.2219 11.4665 17.4611 11.8492 17.815 12.1015Z"
            fill="#3199D8" />
        <path d="M9.22803 45.9471L10.6866 46.3294L12.8548 40.8829L10.7022 40.3185L9.22803 45.9471Z" fill="#FFB8B8" />
        <path
            d="M13.145 48.4218L8.56113 47.2201L9.02519 45.4482L11.838 46.1856C12.3077 46.3088 12.7093 46.6135 12.9544 47.0329C13.1995 47.4523 13.2681 47.9519 13.145 48.4218Z"
            fill="#2F2E41" />
        <path d="M22.1935 46.9861L23.6778 46.7208L23.3615 40.8667L21.1709 41.2582L22.1935 46.9861Z" fill="#FFB8B8" />
        <path
            d="M26.7866 47.5882L22.1218 48.4219L21.7999 46.6186L24.6624 46.1071C24.899 46.0648 25.1417 46.0695 25.3766 46.1211C25.6114 46.1726 25.8338 46.2699 26.0311 46.4074C26.2283 46.545 26.3966 46.72 26.5262 46.9226C26.6559 47.1252 26.7443 47.3514 26.7866 47.5882Z"
            fill="#2F2E41" />
        <path
            d="M19.2707 3.93369C19.6364 4.02276 19.934 4.39563 20.1127 4.82759C20.2775 5.2813 20.3891 5.75262 20.4452 6.23208C20.5856 7.12498 20.7205 8.09162 20.43 8.9186C20.0897 9.88786 19.1827 10.3955 18.396 10.157C17.6093 9.91838 16.9837 9.02289 16.7699 7.9921C16.5753 6.95054 16.7007 5.87444 17.1295 4.90561C17.353 4.39657 17.6611 3.92694 18.0704 3.69727C18.2712 3.57579 18.5105 3.53488 18.7403 3.58277C18.97 3.63066 19.1731 3.7638 19.3086 3.95542"
            fill="#2F2E41" />
        <path
            d="M21.3403 20.1002L24.1661 45.422L21.8322 46.3086L17.5278 29.3285L11.5351 44.854L8.98047 44.996C8.98047 44.996 12.4855 20.8384 15.0831 20.2894L21.3403 20.1002Z"
            fill="#2F2E41" />
        <path
            d="M18.9669 7.16523C20.6351 7.16523 21.9875 5.81219 21.9875 4.14313C21.9875 2.47407 20.6351 1.12103 18.9669 1.12103C17.2987 1.12103 15.9463 2.47407 15.9463 4.14313C15.9463 5.81219 17.2987 7.16523 18.9669 7.16523Z"
            fill="#FFB8B8" />
        <path
            d="M20.2631 8.43312L16.9989 8.00714C16.9989 8.00714 14.8701 10.563 15.012 14.9647C15.154 19.3665 14.6572 20.7154 14.6572 20.7154L21.4632 20.8385C20.4793 19.485 24.5945 11.7114 20.2631 8.43312Z"
            fill="#3199D8" />
        <path
            d="M22.0165 21.4537C21.9484 21.4541 21.8805 21.46 21.8134 21.4712L17.6375 17.0236L18.0632 15.6037L16.0054 14.6807L14.728 17.8045L20.736 22.586C20.7037 22.8462 20.7514 23.1101 20.8726 23.3426C20.9939 23.5751 21.1831 23.7652 21.4149 23.8875C21.6468 24.0098 21.9104 24.0586 22.1706 24.0274C22.4309 23.9962 22.6754 23.8864 22.8718 23.7127C23.0682 23.5391 23.2071 23.3097 23.27 23.0551C23.333 22.8005 23.3169 22.5328 23.2241 22.2876C23.1312 22.0424 22.9659 21.8312 22.7502 21.6822C22.5345 21.5333 22.2786 21.4535 22.0165 21.4537Z"
            fill="#FFB8B8" />
        <path
            d="M17.4429 10.1635L15.5088 14.8937L18.2053 16.1717L20.4384 11.4904C20.5345 11.289 20.5885 11.0701 20.597 10.8471C20.6056 10.6241 20.5685 10.4017 20.4882 10.1935C20.4078 9.98537 20.2858 9.79581 20.1297 9.63646C19.9735 9.47711 19.7865 9.35134 19.58 9.26684C19.3809 9.18532 19.1676 9.14385 18.9524 9.14479C18.7372 9.14573 18.5243 9.18907 18.3259 9.27233C18.1274 9.35559 17.9473 9.47714 17.7958 9.63005C17.6443 9.78295 17.5244 9.96421 17.4429 10.1635Z"
            fill="#3199D8" />
        <path
            d="M18.1765 6.89068C18.6498 6.6175 18.7003 5.95853 18.6359 5.41565C18.5716 4.87278 18.4642 4.26758 18.7831 3.8237C19.1638 3.29393 19.9286 3.28339 20.5805 3.26609C21.2324 3.2488 22.0262 3.05782 22.1952 2.42762C22.3068 2.01122 22.068 1.56436 21.7253 1.30298C21.3826 1.04159 20.9539 0.926031 20.5372 0.816204C19.6051 0.57052 18.6426 0.322766 17.6882 0.457798C16.7428 0.591546 15.8881 1.09231 15.309 1.85176C14.7298 2.6112 14.4728 3.56825 14.5936 4.51582C14.7481 5.72793 14.9721 6.25722 14.8251 6.79167C14.5511 7.78713 13.3701 8.42662 13.3465 9.45886C13.3281 10.2663 14.041 10.8891 14.7364 11.2991C15.2881 11.6243 15.8835 11.9002 16.5192 11.9764C17.155 12.0525 17.8394 11.9067 18.313 11.4756C18.9238 10.9196 19.0749 9.99063 18.8998 9.1832C18.7246 8.37577 18.2753 7.65873 17.8309 6.96238"
            fill="#2F2E41" />
        <path
            d="M75.3299 7.79572H31.6708C31.3774 7.79616 31.0961 7.91297 30.8886 8.12055C30.6812 8.32814 30.5644 8.60955 30.564 8.90312V36.9573C30.5644 37.2508 30.6812 37.5322 30.8886 37.7398C31.0961 37.9474 31.3774 38.0642 31.6708 38.0647H75.3299C75.6233 38.0642 75.9046 37.9474 76.112 37.7398C76.3195 37.5322 76.4363 37.2508 76.4367 36.9573V8.90312C76.4363 8.60955 76.3195 8.32814 76.112 8.12055C75.9046 7.91297 75.6233 7.79616 75.3299 7.79572ZM76.1907 36.9573C76.1905 37.1856 76.0997 37.4045 75.9383 37.566C75.7769 37.7275 75.5581 37.8183 75.3299 37.8186H31.6708C31.4426 37.8183 31.2238 37.7275 31.0624 37.566C30.901 37.4045 30.8102 37.1856 30.8099 36.9573V8.90312C30.8102 8.67476 30.901 8.45583 31.0624 8.29436C31.2238 8.13289 31.4426 8.04206 31.6708 8.0418H75.3299C75.5581 8.04206 75.7769 8.13289 75.9383 8.29436C76.0997 8.45583 76.1905 8.67476 76.1907 8.90312V36.9573Z"
            fill="#3F3D56" />
        <path
            d="M40.99 21.7607H34.103C33.8258 21.7604 33.5601 21.6501 33.3642 21.4541C33.1682 21.258 33.0579 20.9922 33.0576 20.7149V13.8244C33.0579 13.5471 33.1682 13.2813 33.3642 13.0852C33.5601 12.8891 33.8258 12.7788 34.103 12.7785H40.99C41.2672 12.7788 41.5329 12.8891 41.7289 13.0852C41.9248 13.2813 42.0351 13.5471 42.0354 13.8244V20.7149C42.0351 20.9922 41.9248 21.258 41.7289 21.4541C41.5329 21.6501 41.2672 21.7604 40.99 21.7607Z"
            fill="#3199D8" />
        <path
            d="M73.056 29.083H33.9473C33.7353 29.083 33.532 28.9988 33.3821 28.8488C33.2322 28.6988 33.1479 28.4954 33.1479 28.2833C33.1479 28.0711 33.2322 27.8677 33.3821 27.7177C33.532 27.5677 33.7353 27.4835 33.9473 27.4835H73.056C73.268 27.4835 73.4714 27.5677 73.6213 27.7177C73.7712 27.8677 73.8554 28.0711 73.8554 28.2833C73.8554 28.4954 73.7712 28.6988 73.6213 28.8488C73.4714 28.9988 73.268 29.083 73.056 29.083Z"
            fill="#CCCCCC" />
        <path
            d="M73.0824 25.2071H33.9737C33.7617 25.2071 33.5584 25.1229 33.4085 24.9729C33.2585 24.8229 33.1743 24.6195 33.1743 24.4073C33.1743 24.1952 33.2585 23.9918 33.4085 23.8418C33.5584 23.6918 33.7617 23.6075 33.9737 23.6075H73.0824C73.2944 23.6075 73.4977 23.6918 73.6476 23.8418C73.7976 23.9918 73.8818 24.1952 73.8818 24.4073C73.8818 24.6195 73.7976 24.8229 73.6476 24.9729C73.4977 25.1229 73.2944 25.2071 73.0824 25.2071Z"
            fill="#CCCCCC" />
        <path
            d="M53.7739 19.915H47.9937C47.7817 19.915 47.5784 19.8307 47.4285 19.6808C47.2786 19.5308 47.1943 19.3273 47.1943 19.1152C47.1943 18.9031 47.2786 18.6997 47.4285 18.5497C47.5784 18.3997 47.7817 18.3154 47.9937 18.3154H53.7739C53.986 18.3154 54.1893 18.3997 54.3392 18.5497C54.4891 18.6997 54.5733 18.9031 54.5733 19.1152C54.5733 19.3273 54.4891 19.5308 54.3392 19.6808C54.1893 19.8307 53.986 19.915 53.7739 19.915Z"
            fill="#CCCCCC" />
        <path
            d="M73.0823 15.9788H47.9937C47.7817 15.9788 47.5784 15.8945 47.4285 15.7445C47.2786 15.5945 47.1943 15.3911 47.1943 15.179C47.1943 14.9669 47.2786 14.7635 47.4285 14.6135C47.5784 14.4635 47.7817 14.3792 47.9937 14.3792H73.0823C73.2943 14.3792 73.4977 14.4635 73.6476 14.6135C73.7975 14.7635 73.8817 14.9669 73.8817 15.179C73.8817 15.3911 73.7975 15.5945 73.6476 15.7445C73.4977 15.8945 73.2943 15.9788 73.0823 15.9788Z"
            fill="#CCCCCC" />
        <path
            d="M52.79 33.0205H33.9473C33.7353 33.0205 33.532 32.9362 33.3821 32.7862C33.2322 32.6362 33.1479 32.4328 33.1479 32.2207C33.1479 32.0086 33.2322 31.8051 33.3821 31.6551C33.532 31.5052 33.7353 31.4209 33.9473 31.4209H52.79C53.0021 31.4209 53.2054 31.5052 53.3553 31.6551C53.5052 31.8051 53.5894 32.0086 53.5894 32.2207C53.5894 32.4328 53.5052 32.6362 53.3553 32.7862C53.2054 32.9362 53.0021 33.0205 52.79 33.0205Z"
            fill="#CCCCCC" />
    </g>
    <defs>
        <clipPath id="clip0_508_13280">
            <rect width="76.4368" height="50" fill="white" />
        </clipPath>
    </defs>
</svg>