<svg width="12" height="13" viewBox="0 0 12 13" fill="none" xmlns="http://www.w3.org/2000/svg">
<path d="M1.33301 5.43815C1.33301 3.56553 1.33301 2.62923 1.78242 1.95663C1.97698 1.66546 2.22698 1.41545 2.51815 1.2209C3.19075 0.771484 4.12706 0.771484 5.99967 0.771484C7.87229 0.771484 8.8086 0.771484 9.4812 1.2209C9.77237 1.41545 10.0224 1.66546 10.2169 1.95663C10.6663 2.62923 10.6663 3.56553 10.6663 5.43815V7.33229C10.6663 9.20491 10.6663 9.1375 10.6663 9.66563C10.6663 10.3323 10.6663 11.999 9.33301 11.999C7.99967 11.999 7.87229 9.66563 5.99967 9.66563C4.12706 9.66563 3.99967 11.999 2.66634 11.999C1.33301 11.999 1.33301 10.3323 1.33301 9.66563C1.33304 8.3323 1.33301 9.20491 1.33301 7.33229V5.43815Z" stroke="#434343"/>
</svg>
