<svg width="12" height="12" viewBox="0 0 12 12" fill="none" xmlns="http://www.w3.org/2000/svg">
<path d="M3.98077 4.4C4.20381 4.4 4.38462 4.57909 4.38462 4.8V9.6C4.38461 9.82091 4.20381 10 3.98077 10C3.75773 10 3.57692 9.82091 3.57692 9.6V4.8C3.57692 4.57909 3.75773 4.4 3.98077 4.4Z" fill="#434343"/>
<path d="M6 4.4C6.22304 4.4 6.40385 4.57909 6.40385 4.8V9.6C6.40385 9.82091 6.22304 10 6 10C5.77696 10 5.59615 9.82091 5.59615 9.6V4.8C5.59615 4.57909 5.77696 4.4 6 4.4Z" fill="#434343"/>
<path d="M8.42308 4.8C8.42308 4.57909 8.24227 4.4 8.01923 4.4C7.79619 4.4 7.61538 4.57909 7.61538 4.8V9.6C7.61538 9.82091 7.79619 10 8.01923 10C8.24227 10 8.42308 9.82091 8.42308 9.6V4.8Z" fill="#434343"/>
<path fill-rule="evenodd" clip-rule="evenodd" d="M11.25 2.4C11.25 2.84183 10.8884 3.2 10.4423 3.2H10.0385V10.4C10.0385 11.2837 9.31523 12 8.42308 12H3.57692C2.68477 12 1.96154 11.2837 1.96154 10.4V3.2H1.55769C1.11162 3.2 0.75 2.84183 0.75 2.4V1.6C0.75 1.15817 1.11162 0.8 1.55769 0.8H4.38462C4.38462 0.358172 4.74623 0 5.19231 0H6.80769C7.25377 0 7.61538 0.358172 7.61538 0.8H10.4423C10.8884 0.8 11.25 1.15817 11.25 1.6V2.4ZM2.86457 3.2L2.76923 3.24721V10.4C2.76923 10.8418 3.13085 11.2 3.57692 11.2H8.42308C8.86915 11.2 9.23077 10.8418 9.23077 10.4V3.24721L9.13543 3.2H2.86457ZM1.55769 2.4V1.6H10.4423V2.4H1.55769Z" fill="#434343"/>
</svg>
