<svg width="16" height="17" viewBox="0 0 16 17" fill="none" xmlns="http://www.w3.org/2000/svg">
<path d="M10.6666 5.16667C10.6666 6.63943 9.47268 7.83333 7.99992 7.83333C6.52716 7.83333 5.33325 6.63943 5.33325 5.16667C5.33325 3.69391 6.52716 2.5 7.99992 2.5C9.47268 2.5 10.6666 3.69391 10.6666 5.16667Z" stroke="#3199D8"/>
<path d="M3.57288 11.9671C3.43427 11.08 3.95222 10.2213 4.80158 9.93005L4.95964 9.87585C6.93019 9.20024 9.06965 9.20024 11.0402 9.87585L11.1983 9.93005C12.0476 10.2213 12.5656 11.08 12.427 11.9671C12.2682 12.9835 11.5344 13.8155 10.5459 14.1002L9.74773 14.3301C8.60573 14.659 7.39411 14.659 6.25212 14.3301L5.45398 14.1002C4.46545 13.8155 3.73169 12.9835 3.57288 11.9671Z" stroke="#3199D8" stroke-linecap="round" stroke-linejoin="round"/>
</svg>
