<svg width="16" height="16" viewBox="0 0 16 16" fill="none" xmlns="http://www.w3.org/2000/svg">
<path d="M5.176 6.60477H2.31795C1.52688 6.60477 0.888916 5.96681 0.888916 5.17574V2.3177C0.888916 1.52663 1.52688 0.888672 2.31795 0.888672H5.176C5.96707 0.888672 6.60504 1.52663 6.60504 2.3177V5.17574C6.60504 5.96681 5.96707 6.60477 5.176 6.60477Z" stroke="#434343" stroke-width="1.27592" stroke-linecap="round" stroke-linejoin="round"/>
<path d="M13.6821 6.60477H10.8241C10.033 6.60477 9.39502 5.96681 9.39502 5.17574V2.3177C9.39502 1.52663 10.033 0.888672 10.8241 0.888672H13.6821C14.4732 0.888672 15.1111 1.52663 15.1111 2.3177V5.17574C15.1111 5.96681 14.4732 6.60477 13.6821 6.60477Z" stroke="#434343" stroke-width="1.27592" stroke-linecap="round" stroke-linejoin="round"/>
<path d="M5.176 15.1106H2.31795C1.52688 15.1106 0.888916 14.4727 0.888916 13.6816V10.8236C0.888916 10.0325 1.52688 9.39453 2.31795 9.39453H5.176C5.96707 9.39453 6.60504 10.0325 6.60504 10.8236V13.6816C6.60504 14.4727 5.96707 15.1106 5.176 15.1106Z" stroke="#434343" stroke-width="1.27592" stroke-linecap="round" stroke-linejoin="round"/>
<path d="M13.6821 15.1106H10.8241C10.033 15.1106 9.39502 14.4727 9.39502 13.6816V10.8236C9.39502 10.0325 10.033 9.39453 10.8241 9.39453H13.6821C14.4732 9.39453 15.1111 10.0325 15.1111 10.8236V13.6816C15.1111 14.4727 14.4732 15.1106 13.6821 15.1106Z" stroke="#434343" stroke-width="1.27592" stroke-linecap="round" stroke-linejoin="round"/>
</svg>
