<svg width="14" height="16" viewBox="0 0 14 16" fill="none" xmlns="http://www.w3.org/2000/svg">
<path d="M12.6059 5.86375L11.579 6.47078L7.50205 8.87572C7.19319 9.04476 6.80712 9.04476 6.50599 8.87572L2.42906 6.47078L1.40212 5.86375C0.714917 5.46421 0.714917 4.43466 1.40212 4.03511L6.5137 1.01545C6.82256 0.846413 7.20863 0.846413 7.50976 1.01545L12.6213 4.03511C13.2931 4.43466 13.2931 5.47189 12.6059 5.86375Z" stroke="#434343" stroke-width="1.5" stroke-linecap="round" stroke-linejoin="round"/>
<path d="M13.077 7.68457C13.2082 8.13021 13.0538 8.65268 12.606 8.91391L7.49438 11.9335C7.18552 12.1026 6.79944 12.1026 6.4983 11.9335L1.38672 8.91391C0.969766 8.66804 0.807613 8.19166 0.90027 7.76139" stroke="#434343" stroke-width="1.5" stroke-linecap="round" stroke-linejoin="round"/>
<path d="M13.0925 10.7812C13.2006 11.2192 13.0384 11.7109 12.6138 11.9645L7.50216 14.9842C7.1933 15.1532 6.80724 15.1532 6.5061 14.9842L1.39451 11.9645C1.00072 11.734 0.83085 11.2961 0.892622 10.8888" stroke="#434343" stroke-width="1.5" stroke-linecap="round" stroke-linejoin="round"/>
</svg>
