<svg width="24" height="24" viewBox="0 0 24 24" fill="none" xmlns="http://www.w3.org/2000/svg">
<path d="M18.27 7.17969H2.75V17.1997C2.75 18.8497 4.09 20.1797 5.73 20.1797H18.26C19.91 20.1797 21.24 18.8397 21.24 17.1997V10.1697C21.25 8.51969 19.91 7.17969 18.27 7.17969Z" stroke="#242424" stroke-width="1.5" stroke-linecap="round" stroke-linejoin="round"/>
<path d="M8.98047 3.82031H14.1105C15.8105 3.82031 17.1905 5.33031 17.1905 7.18031" stroke="#242424" stroke-width="1.5" stroke-linecap="round" stroke-linejoin="round"/>
<path d="M2.75 10.8606V5.89062" stroke="#242424" stroke-width="1.5" stroke-linecap="round" stroke-linejoin="round"/>
<path d="M11.48 7.18031H4.29C3.44 7.18031 2.75 6.43031 2.75 5.50031C2.75 4.57031 3.44 3.82031 4.29 3.82031H11.48" stroke="#242424" stroke-width="1.5" stroke-linecap="round" stroke-linejoin="round"/>
<path d="M17.7102 14.1899C17.9919 14.1899 18.2202 13.9616 18.2202 13.6799C18.2202 13.3983 17.9919 13.1699 17.7102 13.1699C17.4285 13.1699 17.2002 13.3983 17.2002 13.6799C17.2002 13.9616 17.4285 14.1899 17.7102 14.1899Z" fill="#242424" stroke="#242424" stroke-width="1.5" stroke-linecap="round" stroke-linejoin="round"/>
</svg>
